<?plantuml 1.2026.1beta5?><svg xmlns="http://www.w3.org/2000/svg" xmlns:xlink="http://www.w3.org/1999/xlink" contentStyleType="text/css" data-diagram-type="CLASS" height="333px" preserveAspectRatio="none" style="width:1289px;height:333px;background:#FFFFFF;" version="1.1" viewBox="0 0 1289 333" width="1289px" zoomAndPan="magnify"><title>Diagrama Entidad-Relaci&#243;n - SigHor (BD Access 2.0 Original)</title><defs/><g><g class="title" data-source-line="5"><text fill="#000000" font-family="sans-serif" font-size="14" font-weight="bold" lengthAdjust="spacing" textLength="478.9941" x="398.3803" y="22.9951">Diagrama Entidad-Relaci&#243;n - SigHor (BD Access 2.0 Original)</text></g><!--class Aulas--><g class="entity" data-qualified-name="Aulas" data-source-line="8" id="ent0002"><rect fill="#F1F1F1" height="48" rx="2.5" ry="2.5" style="stroke:#181818;stroke-width:0.5;" width="89.292" x="179.06" y="44.2969"/><ellipse cx="194.06" cy="60.2969" fill="#ADD1B2" rx="11" ry="11" style="stroke:#181818;stroke-width:1;"/><path d="M198.1694,66.2969 L190.4506,66.2969 L190.4506,53.9063 L198.1694,53.9063 L198.1694,56.0625 L192.9038,56.0625 L192.9038,58.7344 L197.6694,58.7344 L197.6694,60.8906 L192.9038,60.8906 L192.9038,64.1406 L198.1694,64.1406 L198.1694,66.2969 Z " fill="#000000"/><text fill="#000000" font-family="sans-serif" font-size="14" lengthAdjust="spacing" textLength="57.292" x="208.06" y="65.1436">M_Aulas</text><line style="stroke:#181818;stroke-width:0.5;" x1="180.06" x2="267.352" y1="76.2969" y2="76.2969"/><line style="stroke:#181818;stroke-width:0.5;" x1="180.06" x2="267.352" y1="84.2969" y2="84.2969"/></g><!--class Cursos--><g class="entity" data-qualified-name="Cursos" data-source-line="9" id="ent0003"><rect fill="#F1F1F1" height="48" rx="2.5" ry="2.5" style="stroke:#181818;stroke-width:0.5;" width="98.6367" x="608.39" y="44.2969"/><ellipse cx="623.39" cy="60.2969" fill="#ADD1B2" rx="11" ry="11" style="stroke:#181818;stroke-width:1;"/><path d="M627.4994,66.2969 L619.7806,66.2969 L619.7806,53.9063 L627.4994,53.9063 L627.4994,56.0625 L622.2338,56.0625 L622.2338,58.7344 L626.9994,58.7344 L626.9994,60.8906 L622.2338,60.8906 L622.2338,64.1406 L627.4994,64.1406 L627.4994,66.2969 Z " fill="#000000"/><text fill="#000000" font-family="sans-serif" font-size="14" lengthAdjust="spacing" textLength="66.6367" x="637.39" y="65.1436">M_Cursos</text><line style="stroke:#181818;stroke-width:0.5;" x1="609.39" x2="706.0267" y1="76.2969" y2="76.2969"/><line style="stroke:#181818;stroke-width:0.5;" x1="609.39" x2="706.0267" y1="84.2969" y2="84.2969"/></g><!--class Profesores--><g class="entity" data-qualified-name="Profesores" data-source-line="10" id="ent0004"><rect fill="#F1F1F1" height="48" rx="2.5" ry="2.5" style="stroke:#181818;stroke-width:0.5;" width="124.9072" x="847.25" y="44.2969"/><ellipse cx="862.25" cy="60.2969" fill="#ADD1B2" rx="11" ry="11" style="stroke:#181818;stroke-width:1;"/><path d="M866.3594,66.2969 L858.6406,66.2969 L858.6406,53.9063 L866.3594,53.9063 L866.3594,56.0625 L861.0938,56.0625 L861.0938,58.7344 L865.8594,58.7344 L865.8594,60.8906 L861.0938,60.8906 L861.0938,64.1406 L866.3594,64.1406 L866.3594,66.2969 Z " fill="#000000"/><text fill="#000000" font-family="sans-serif" font-size="14" lengthAdjust="spacing" textLength="92.9072" x="876.25" y="65.1436">M_Profesores</text><line style="stroke:#181818;stroke-width:0.5;" x1="848.25" x2="971.1572" y1="76.2969" y2="76.2969"/><line style="stroke:#181818;stroke-width:0.5;" x1="848.25" x2="971.1572" y1="84.2969" y2="84.2969"/></g><!--class Horario--><g class="entity" data-qualified-name="Horario" data-source-line="11" id="ent0005"><rect fill="#F1F1F1" height="48" rx="2.5" ry="2.5" style="stroke:#181818;stroke-width:0.5;" width="102.7178" x="339.35" y="278.2969"/><ellipse cx="354.35" cy="294.2969" fill="#ADD1B2" rx="11" ry="11" style="stroke:#181818;stroke-width:1;"/><path d="M358.4594,300.2969 L350.7406,300.2969 L350.7406,287.9063 L358.4594,287.9063 L358.4594,290.0625 L353.1938,290.0625 L353.1938,292.7344 L357.9594,292.7344 L357.9594,294.8906 L353.1938,294.8906 L353.1938,298.1406 L358.4594,298.1406 L358.4594,300.2969 Z " fill="#000000"/><text fill="#000000" font-family="sans-serif" font-size="14" lengthAdjust="spacing" textLength="70.7178" x="368.35" y="299.1436">M_Horario</text><line style="stroke:#181818;stroke-width:0.5;" x1="340.35" x2="441.0678" y1="310.2969" y2="310.2969"/><line style="stroke:#181818;stroke-width:0.5;" x1="340.35" x2="441.0678" y1="318.2969" y2="318.2969"/></g><!--class DatosG--><g class="entity" data-qualified-name="DatosG" data-source-line="12" id="ent0006"><rect fill="#F1F1F1" height="48" rx="2.5" ry="2.5" style="stroke:#181818;stroke-width:0.5;" width="162.8672" x="1007.27" y="44.2969"/><ellipse cx="1022.27" cy="60.2969" fill="#ADD1B2" rx="11" ry="11" style="stroke:#181818;stroke-width:1;"/><path d="M1026.3794,66.2969 L1018.6606,66.2969 L1018.6606,53.9063 L1026.3794,53.9063 L1026.3794,56.0625 L1021.1138,56.0625 L1021.1138,58.7344 L1025.8794,58.7344 L1025.8794,60.8906 L1021.1138,60.8906 L1021.1138,64.1406 L1026.3794,64.1406 L1026.3794,66.2969 Z " fill="#000000"/><text fill="#000000" font-family="sans-serif" font-size="14" lengthAdjust="spacing" textLength="130.8672" x="1036.27" y="65.1436">M_DatosGenerales</text><line style="stroke:#181818;stroke-width:0.5;" x1="1008.27" x2="1169.1372" y1="76.2969" y2="76.2969"/><line style="stroke:#181818;stroke-width:0.5;" x1="1008.27" x2="1169.1372" y1="84.2969" y2="84.2969"/></g><!--class R_ProfCurso--><g class="entity" data-qualified-name="R_ProfCurso" data-source-line="15" id="ent0007"><rect fill="#F1F1F1" height="48" rx="2.5" ry="2.5" style="stroke:#181818;stroke-width:0.5;" width="146.9121" x="836.25" y="169.2969"/><ellipse cx="851.25" cy="185.2969" fill="#ADD1B2" rx="11" ry="11" style="stroke:#181818;stroke-width:1;"/><path d="M855.3594,191.2969 L847.6406,191.2969 L847.6406,178.9063 L855.3594,178.9063 L855.3594,181.0625 L850.0938,181.0625 L850.0938,183.7344 L854.8594,183.7344 L854.8594,185.8906 L850.0938,185.8906 L850.0938,189.1406 L855.3594,189.1406 L855.3594,191.2969 Z " fill="#000000"/><text fill="#000000" font-family="sans-serif" font-size="14" lengthAdjust="spacing" textLength="114.9121" x="865.25" y="190.1436">R_ProfesorCurso</text><line style="stroke:#181818;stroke-width:0.5;" x1="837.25" x2="982.1621" y1="201.2969" y2="201.2969"/><line style="stroke:#181818;stroke-width:0.5;" x1="837.25" x2="982.1621" y1="209.2969" y2="209.2969"/></g><!--class S_CursosH--><g class="entity" data-qualified-name="S_CursosH" data-source-line="18" id="ent0008"><rect fill="#F1F1F1" height="48" rx="2.5" ry="2.5" style="stroke:#181818;stroke-width:0.5;" width="181.9395" x="486.74" y="169.2969"/><ellipse cx="501.74" cy="185.2969" fill="#ADD1B2" rx="11" ry="11" style="stroke:#181818;stroke-width:1;"/><path d="M505.8494,191.2969 L498.1306,191.2969 L498.1306,178.9063 L505.8494,178.9063 L505.8494,181.0625 L500.5838,181.0625 L500.5838,183.7344 L505.3494,183.7344 L505.3494,185.8906 L500.5838,185.8906 L500.5838,189.1406 L505.8494,189.1406 L505.8494,191.2969 Z " fill="#000000"/><text fill="#000000" font-family="sans-serif" font-size="14" lengthAdjust="spacing" textLength="149.9395" x="515.74" y="190.1436">S_CursosHModificado</text><line style="stroke:#181818;stroke-width:0.5;" x1="487.74" x2="667.6795" y1="201.2969" y2="201.2969"/><line style="stroke:#181818;stroke-width:0.5;" x1="487.74" x2="667.6795" y1="209.2969" y2="209.2969"/></g><!--class S_AulaOc--><g class="entity" data-qualified-name="S_AulaOc" data-source-line="19" id="ent0009"><rect fill="#F1F1F1" height="48" rx="2.5" ry="2.5" style="stroke:#181818;stroke-width:0.5;" width="141.3271" x="153.04" y="169.2969"/><ellipse cx="168.04" cy="185.2969" fill="#ADD1B2" rx="11" ry="11" style="stroke:#181818;stroke-width:1;"/><path d="M172.1494,191.2969 L164.4306,191.2969 L164.4306,178.9063 L172.1494,178.9063 L172.1494,181.0625 L166.8838,181.0625 L166.8838,183.7344 L171.6494,183.7344 L171.6494,185.8906 L166.8838,185.8906 L166.8838,189.1406 L172.1494,189.1406 L172.1494,191.2969 Z " fill="#000000"/><text fill="#000000" font-family="sans-serif" font-size="14" lengthAdjust="spacing" textLength="109.3271" x="182.04" y="190.1436">S_AulaOcupada</text><line style="stroke:#181818;stroke-width:0.5;" x1="154.04" x2="293.3671" y1="201.2969" y2="201.2969"/><line style="stroke:#181818;stroke-width:0.5;" x1="154.04" x2="293.3671" y1="209.2969" y2="209.2969"/></g><!--class T_PreHorario--><g class="entity" data-qualified-name="T_PreHorario" data-source-line="22" id="ent0010"><rect fill="#F1F1F1" height="48" rx="2.5" ry="2.5" style="stroke:#181818;stroke-width:0.5;" width="122.002" x="329.71" y="169.2969"/><ellipse cx="344.71" cy="185.2969" fill="#ADD1B2" rx="11" ry="11" style="stroke:#181818;stroke-width:1;"/><path d="M348.8194,191.2969 L341.1006,191.2969 L341.1006,178.9063 L348.8194,178.9063 L348.8194,181.0625 L343.5538,181.0625 L343.5538,183.7344 L348.3194,183.7344 L348.3194,185.8906 L343.5538,185.8906 L343.5538,189.1406 L348.8194,189.1406 L348.8194,191.2969 Z " fill="#000000"/><text fill="#000000" font-family="sans-serif" font-size="14" lengthAdjust="spacing" textLength="90.002" x="358.71" y="190.1436">T_PreHorario</text><line style="stroke:#181818;stroke-width:0.5;" x1="330.71" x2="450.712" y1="201.2969" y2="201.2969"/><line style="stroke:#181818;stroke-width:0.5;" x1="330.71" x2="450.712" y1="209.2969" y2="209.2969"/></g><!--class T_AulaLibre--><g class="entity" data-qualified-name="T_AulaLibre" data-source-line="23" id="ent0011"><rect fill="#F1F1F1" height="48" rx="2.5" ry="2.5" style="stroke:#181818;stroke-width:0.5;" width="113.416" x="7" y="44.2969"/><ellipse cx="22" cy="60.2969" fill="#ADD1B2" rx="11" ry="11" style="stroke:#181818;stroke-width:1;"/><path d="M26.1094,66.2969 L18.3906,66.2969 L18.3906,53.9063 L26.1094,53.9063 L26.1094,56.0625 L20.8438,56.0625 L20.8438,58.7344 L25.6094,58.7344 L25.6094,60.8906 L20.8438,60.8906 L20.8438,64.1406 L26.1094,64.1406 L26.1094,66.2969 Z " fill="#000000"/><text fill="#000000" font-family="sans-serif" font-size="14" lengthAdjust="spacing" textLength="81.416" x="36" y="65.1436">T_AulaLibre</text><line style="stroke:#181818;stroke-width:0.5;" x1="8" x2="119.416" y1="76.2969" y2="76.2969"/><line style="stroke:#181818;stroke-width:0.5;" x1="8" x2="119.416" y1="84.2969" y2="84.2969"/></g><!--class T_Dias--><g class="entity" data-qualified-name="T_Dias" data-source-line="24" id="ent0012"><rect fill="#F1F1F1" height="48" rx="2.5" ry="2.5" style="stroke:#181818;stroke-width:0.5;" width="78.0947" x="1204.66" y="44.2969"/><ellipse cx="1219.66" cy="60.2969" fill="#ADD1B2" rx="11" ry="11" style="stroke:#181818;stroke-width:1;"/><path d="M1223.7694,66.2969 L1216.0506,66.2969 L1216.0506,53.9063 L1223.7694,53.9063 L1223.7694,56.0625 L1218.5038,56.0625 L1218.5038,58.7344 L1223.2694,58.7344 L1223.2694,60.8906 L1218.5038,60.8906 L1218.5038,64.1406 L1223.7694,64.1406 L1223.7694,66.2969 Z " fill="#000000"/><text fill="#000000" font-family="sans-serif" font-size="14" lengthAdjust="spacing" textLength="46.0947" x="1233.66" y="65.1436">T_Dias</text><line style="stroke:#181818;stroke-width:0.5;" x1="1205.66" x2="1281.7547" y1="76.2969" y2="76.2969"/><line style="stroke:#181818;stroke-width:0.5;" x1="1205.66" x2="1281.7547" y1="84.2969" y2="84.2969"/></g><!--class T_Horas--><g class="entity" data-qualified-name="T_Horas" data-source-line="25" id="ent0013"><rect fill="#F1F1F1" height="48" rx="2.5" ry="2.5" style="stroke:#181818;stroke-width:0.5;" width="88.2734" x="1044.57" y="169.2969"/><ellipse cx="1059.57" cy="185.2969" fill="#ADD1B2" rx="11" ry="11" style="stroke:#181818;stroke-width:1;"/><path d="M1063.6794,191.2969 L1055.9606,191.2969 L1055.9606,178.9063 L1063.6794,178.9063 L1063.6794,181.0625 L1058.4138,181.0625 L1058.4138,183.7344 L1063.1794,183.7344 L1063.1794,185.8906 L1058.4138,185.8906 L1058.4138,189.1406 L1063.6794,189.1406 L1063.6794,191.2969 Z " fill="#000000"/><text fill="#000000" font-family="sans-serif" font-size="14" lengthAdjust="spacing" textLength="56.2734" x="1073.57" y="190.1436">T_Horas</text><line style="stroke:#181818;stroke-width:0.5;" x1="1045.57" x2="1131.8434" y1="201.2969" y2="201.2969"/><line style="stroke:#181818;stroke-width:0.5;" x1="1045.57" x2="1131.8434" y1="209.2969" y2="209.2969"/></g><!--link Aulas to Horario--><g class="link" data-entity-1="ent0002" data-entity-2="ent0005" data-link-type="crowfoot" data-source-line="28" id="lnk14"><path codeLine="28" d="M171.5354,93.0862 C116.9654,120.3862 43.86,167.7869 81.71,217.2969 C112.85,258.0369 241.7742,281.1884 321.3242,292.3384" fill="none" id="Aulas-Horario" style="stroke:#181818;stroke-width:1;"/><line style="stroke:#181818;stroke-width:1;" x1="173.323" x2="176.9023" y1="87.7192" y2="94.8738"/><line style="stroke:#181818;stroke-width:1;" x1="170.6401" x2="174.2193" y1="89.0614" y2="96.2161"/><line style="stroke:#181818;stroke-width:1;" x1="171.5354" x2="178.69" y1="93.0862" y2="89.5069"/><line style="stroke:#181818;stroke-width:1;" x1="331.2274" x2="339.9828" y1="293.7264" y2="288.895"/><line style="stroke:#181818;stroke-width:1;" x1="331.2274" x2="338.3172" y1="293.7264" y2="300.7788"/><line style="stroke:#181818;stroke-width:1;" x1="331.2274" x2="339.15" y1="293.7264" y2="294.8369"/><ellipse cx="325.2855" cy="292.8936" fill="none" rx="4" ry="4" style="stroke:#181818;stroke-width:1;"/><text fill="#000000" font-family="sans-serif" font-size="13" lengthAdjust="spacing" textLength="22.3755" x="97.8714" y="190.3638">1:N</text><text fill="#000000" font-family="sans-serif" font-size="13" lengthAdjust="spacing" textLength="52.6982" x="82.71" y="205.4966">(IDAula)</text></g><!--link Cursos to Horario--><g class="link" data-entity-1="ent0003" data-entity-2="ent0005" data-link-type="crowfoot" data-source-line="29" id="lnk15"><path codeLine="29" d="M676.0663,99.5895 C693.5563,131.0595 713.52,180.4569 685.71,217.2969 C656.43,256.0769 536.7586,279.5064 460.2486,291.3364" fill="none" id="Cursos-Horario" style="stroke:#181818;stroke-width:1;"/><line style="stroke:#181818;stroke-width:1;" x1="670.6268" x2="677.6195" y1="98.0363" y2="94.1501"/><line style="stroke:#181818;stroke-width:1;" x1="672.0842" x2="679.0768" y1="100.6586" y2="96.7723"/><line style="stroke:#181818;stroke-width:1;" x1="676.0663" x2="672.18" y1="99.5895" y2="92.5969"/><line style="stroke:#181818;stroke-width:1;" x1="450.3661" x2="443.3768" y1="292.8644" y2="300.0164"/><line style="stroke:#181818;stroke-width:1;" x1="450.3661" x2="441.5432" y1="292.8644" y2="288.1573"/><line style="stroke:#181818;stroke-width:1;" x1="450.3661" x2="442.46" y1="292.8644" y2="294.0869"/><ellipse cx="456.2956" cy="291.9476" fill="none" rx="4" ry="4" style="stroke:#181818;stroke-width:1;"/><text fill="#000000" font-family="sans-serif" font-size="13" lengthAdjust="spacing" textLength="22.3755" x="719.21" y="190.3638">1:N</text><text fill="#000000" font-family="sans-serif" font-size="13" lengthAdjust="spacing" textLength="61.3755" x="699.71" y="205.4966">(IDCurso)</text></g><!--link Profesores to R_ProfCurso--><g class="link" data-entity-1="ent0004" data-entity-2="ent0007" data-link-type="crowfoot" data-source-line="30" id="lnk16"><path codeLine="30" d="M909.71,100.7169 C909.71,122.6069 909.71,129.0969 909.71,150.9569" fill="none" id="Profesores-R_ProfCurso" style="stroke:#181818;stroke-width:1;"/><line style="stroke:#181818;stroke-width:1;" x1="905.71" x2="913.71" y1="96.7169" y2="96.7169"/><line style="stroke:#181818;stroke-width:1;" x1="905.71" x2="913.71" y1="99.7169" y2="99.7169"/><line style="stroke:#181818;stroke-width:1;" x1="909.71" x2="909.71" y1="100.7169" y2="92.7169"/><line style="stroke:#181818;stroke-width:1;" x1="909.71" x2="915.71" y1="160.9569" y2="168.9569"/><line style="stroke:#181818;stroke-width:1;" x1="909.71" x2="903.71" y1="160.9569" y2="168.9569"/><line style="stroke:#181818;stroke-width:1;" x1="909.71" x2="909.71" y1="160.9569" y2="168.9569"/><ellipse cx="909.71" cy="154.9569" fill="none" rx="4" ry="4" style="stroke:#181818;stroke-width:1;"/><text fill="#000000" font-family="sans-serif" font-size="13" lengthAdjust="spacing" textLength="22.3755" x="910.71" y="135.3638">1:N</text></g><!--link Cursos to R_ProfCurso--><g class="link" data-entity-1="ent0003" data-entity-2="ent0007" data-link-type="crowfoot" data-source-line="31" id="lnk17"><path codeLine="31" d="M712.8891,96.2264 C757.7291,118.1164 800.9345,139.2006 845.7145,161.0606" fill="none" id="Cursos-R_ProfCurso" style="stroke:#181818;stroke-width:1;"/><line style="stroke:#181818;stroke-width:1;" x1="707.5398" x2="711.0493" y1="98.0662" y2="90.8771"/><line style="stroke:#181818;stroke-width:1;" x1="710.2357" x2="713.7452" y1="99.3823" y2="92.1932"/><line style="stroke:#181818;stroke-width:1;" x1="712.8891" x2="705.7" y1="96.2264" y2="92.7169"/><line style="stroke:#181818;stroke-width:1;" x1="854.7009" x2="864.5221" y1="165.4474" y2="163.565"/><line style="stroke:#181818;stroke-width:1;" x1="854.7009" x2="859.2579" y1="165.4474" y2="174.3487"/><line style="stroke:#181818;stroke-width:1;" x1="854.7009" x2="861.89" y1="165.4474" y2="168.9569"/><ellipse cx="849.309" cy="162.8153" fill="none" rx="4" ry="4" style="stroke:#181818;stroke-width:1;"/><text fill="#000000" font-family="sans-serif" font-size="13" lengthAdjust="spacing" textLength="22.3755" x="800.71" y="135.3638">1:N</text></g><!--link Cursos to S_CursosH--><g class="link" data-entity-1="ent0003" data-entity-2="ent0008" data-link-type="crowfoot" data-source-line="32" id="lnk18"><path codeLine="32" d="M638.1098,99.4242 C623.8798,121.3142 616.9103,132.0052 602.7003,153.8652" fill="none" id="Cursos-S_CursosH" style="stroke:#181818;stroke-width:1;"/><line style="stroke:#181818;stroke-width:1;" x1="636.9362" x2="643.6436" y1="93.8904" y2="98.2507"/><line style="stroke:#181818;stroke-width:1;" x1="635.3011" x2="642.0085" y1="96.4057" y2="100.7659"/><line style="stroke:#181818;stroke-width:1;" x1="638.1098" x2="642.47" y1="99.4242" y2="92.7169"/><line style="stroke:#181818;stroke-width:1;" x1="597.2501" x2="597.9206" y1="162.2495" y2="172.227"/><line style="stroke:#181818;stroke-width:1;" x1="597.2501" x2="587.8594" y1="162.2495" y2="165.6868"/><line style="stroke:#181818;stroke-width:1;" x1="597.2501" x2="592.89" y1="162.2495" y2="168.9569"/><ellipse cx="600.5202" cy="157.2189" fill="none" rx="4" ry="4" style="stroke:#181818;stroke-width:1;"/><text fill="#000000" font-family="sans-serif" font-size="13" lengthAdjust="spacing" textLength="22.3755" x="623.71" y="135.3638">1:N</text></g><!--link Aulas to S_AulaOc--><g class="link" data-entity-1="ent0002" data-entity-2="ent0009" data-link-type="crowfoot" data-source-line="33" id="lnk19"><path codeLine="33" d="M223.71,100.7169 C223.71,122.6069 223.71,129.0969 223.71,150.9569" fill="none" id="Aulas-S_AulaOc" style="stroke:#181818;stroke-width:1;"/><line style="stroke:#181818;stroke-width:1;" x1="219.71" x2="227.71" y1="96.7169" y2="96.7169"/><line style="stroke:#181818;stroke-width:1;" x1="219.71" x2="227.71" y1="99.7169" y2="99.7169"/><line style="stroke:#181818;stroke-width:1;" x1="223.71" x2="223.71" y1="100.7169" y2="92.7169"/><line style="stroke:#181818;stroke-width:1;" x1="223.71" x2="229.71" y1="160.9569" y2="168.9569"/><line style="stroke:#181818;stroke-width:1;" x1="223.71" x2="217.71" y1="160.9569" y2="168.9569"/><line style="stroke:#181818;stroke-width:1;" x1="223.71" x2="223.71" y1="160.9569" y2="168.9569"/><ellipse cx="223.71" cy="154.9569" fill="none" rx="4" ry="4" style="stroke:#181818;stroke-width:1;"/><text fill="#000000" font-family="sans-serif" font-size="13" lengthAdjust="spacing" textLength="22.3755" x="224.71" y="135.3638">1:N</text></g><!--link Aulas to T_PreHorario--><g class="link" data-entity-1="ent0002" data-entity-2="ent0010" data-link-type="crowfoot" data-source-line="34" id="lnk20"><path codeLine="34" d="M261.9514,97.4612 C291.6714,119.3512 314.8468,136.4223 344.5268,158.2823" fill="none" id="Aulas-T_PreHorario" style="stroke:#181818;stroke-width:1;"/><line style="stroke:#181818;stroke-width:1;" x1="256.3585" x2="261.1029" y1="98.3097" y2="91.8684"/><line style="stroke:#181818;stroke-width:1;" x1="258.774" x2="263.5184" y1="100.0889" y2="93.6475"/><line style="stroke:#181818;stroke-width:1;" x1="261.9514" x2="255.51" y1="97.4612" y2="92.7169"/><line style="stroke:#181818;stroke-width:1;" x1="352.5786" x2="362.5782" y1="164.2126" y2="164.1258"/><line style="stroke:#181818;stroke-width:1;" x1="352.5786" x2="355.4618" y1="164.2126" y2="173.7879"/><line style="stroke:#181818;stroke-width:1;" x1="352.5786" x2="359.02" y1="164.2126" y2="168.9569"/><ellipse cx="347.7475" cy="160.6544" fill="none" rx="4" ry="4" style="stroke:#181818;stroke-width:1;"/><text fill="#000000" font-family="sans-serif" font-size="13" lengthAdjust="spacing" textLength="22.3755" x="318.71" y="135.3638">1:N</text></g><!--link Cursos to T_PreHorario--><g class="link" data-entity-1="ent0003" data-entity-2="ent0010" data-link-type="crowfoot" data-source-line="35" id="lnk21"><path codeLine="35" d="M600.8438,95.4939 C553.3438,117.3739 505.619,139.3662 457.749,161.4162" fill="none" id="Cursos-T_PreHorario" style="stroke:#181818;stroke-width:1;"/><line style="stroke:#181818;stroke-width:1;" x1="602.8034" x2="606.1504" y1="90.1873" y2="97.4535"/><line style="stroke:#181818;stroke-width:1;" x1="600.0786" x2="603.4256" y1="91.4424" y2="98.7086"/><line style="stroke:#181818;stroke-width:1;" x1="600.8438" x2="608.11" y1="95.4939" y2="92.1469"/><line style="stroke:#181818;stroke-width:1;" x1="448.6662" x2="443.9102" y1="165.5999" y2="174.3965"/><line style="stroke:#181818;stroke-width:1;" x1="448.6662" x2="438.8898" y1="165.5999" y2="163.4972"/><line style="stroke:#181818;stroke-width:1;" x1="448.6662" x2="441.4" y1="165.5999" y2="168.9469"/><ellipse cx="454.1159" cy="163.0897" fill="none" rx="4" ry="4" style="stroke:#181818;stroke-width:1;"/><text fill="#000000" font-family="sans-serif" font-size="13" lengthAdjust="spacing" textLength="22.3755" x="541.71" y="135.3638">1:N</text></g><!--link T_AulaLibre to Aulas--><g class="link" data-entity-1="ent0011" data-entity-2="ent0002" data-link-type="crowfoot" data-source-line="36" id="lnk23"><path codeLine="36" d="M138.57,68.2969 C157.61,68.2969 152.57,68.2969 170.59,68.2969" fill="none" id="T_AulaLibre-Aulas" style="stroke:#181818;stroke-width:1;"/><line style="stroke:#181818;stroke-width:1;" x1="128.57" x2="120.57" y1="68.2969" y2="74.2969"/><line style="stroke:#181818;stroke-width:1;" x1="128.57" x2="120.57" y1="68.2969" y2="62.2969"/><line style="stroke:#181818;stroke-width:1;" x1="128.57" x2="120.57" y1="68.2969" y2="68.2969"/><ellipse cx="134.57" cy="68.2969" fill="none" rx="4" ry="4" style="stroke:#181818;stroke-width:1;"/><line style="stroke:#181818;stroke-width:1;" x1="174.59" x2="174.59" y1="64.2969" y2="72.2969"/><line style="stroke:#181818;stroke-width:1;" x1="171.59" x2="171.59" y1="64.2969" y2="72.2969"/><line style="stroke:#181818;stroke-width:1;" x1="170.59" x2="178.59" y1="68.2969" y2="68.2969"/><text fill="#000000" font-family="sans-serif" font-size="13" lengthAdjust="spacing" textLength="22.3755" x="138.74" y="61.3638">1:N</text></g><!--link T_PreHorario to Horario--><?plantuml-src XP71JW8n48Rl-nGZ78J36lHWW1kmAv206C2J6bEs0pPPMj8k1wDlvIFuOdRRfGm6OtgPpl_DTFhF1SUra0YJyN2qx4yUKwZtagITtaONL1dEq_GUwfrMcdPQfz9WDkzDe7xNQjiJHOKeSeH4i8rcMmQfB0HdF9vZpZBn_IKXXeNOZ9I6HZ-1NfQXCN1prOAP5XiXMTwCeajOibNE34mPca8p4w5jKxn3RVhQsrkX1bPq4L46UssKbtm8H7pGQer6QVJ0yKeXEnNJGZcYYgcSi4AP8KhKBA_w-1IGaJb2-6kedOVttMIkrEVSdTOlCDjBRfycVrjKVnjD5HThaJ7kMuGy4BIqPPRjTuop2l8P-iWIjplbVX4AbtOSf0RG112ix3OHAuqL5UuKilitbLw6L2fR7ZGNky6yPqhQYTnUuVCpZjL7M4CNQjVT-sVP62Ubtgn5rOx_vXnWGRBh2gRM-uBVxVudZjuVz9EvW-jdrHDlp_S_YuGckKUEtX-8wAGkvazlWdEKB_71eHy0?></g></svg>