<?xml version="1.0" encoding="us-ascii" standalone="no"?><svg xmlns="http://www.w3.org/2000/svg" xmlns:xlink="http://www.w3.org/1999/xlink" contentStyleType="text/css" height="723px" preserveAspectRatio="none" style="width:898px;height:723px;background:#FFFFFF;" version="1.1" viewBox="0 0 898 723" width="898px" zoomAndPan="magnify"><defs/><g><text fill="#000000" font-family="sans-serif" font-size="14" font-weight="bold" lengthAdjust="spacing" textLength="378" x="259.25" y="28.1318">Diagrama de Secuencia: Eliminar Aula (CLI Standalone)</text><rect fill="#FFFFFF" height="476.1797" style="stroke:#181818;stroke-width:1.0;" width="10" x="260" y="149.146"/><rect fill="#FFFFFF" height="28.9487" style="stroke:#181818;stroke-width:1.0;" width="10" x="384.5" y="178.0947"/><rect fill="#FFFFFF" height="302.4873" style="stroke:#181818;stroke-width:1.0;" width="10" x="494.5" y="293.8896"/><rect fill="#FFFFFF" height="244.5898" style="stroke:#181818;stroke-width:1.0;" width="10" x="604" y="322.8384"/><rect fill="#FFFFFF" height="28.9487" style="stroke:#181818;stroke-width:1.0;" width="10" x="859" y="393.7358"/><rect fill="#FFFFFF" height="28.9487" style="stroke:#181818;stroke-width:1.0;" width="10" x="859" y="451.6333"/><rect fill="#FFFFFF" height="28.9487" style="stroke:#181818;stroke-width:1.0;" width="10" x="859" y="509.5308"/><line style="stroke:#181818;stroke-width:0.5;stroke-dasharray:5.0,5.0;" x1="52" x2="52" y1="118.1973" y2="643.3257"/><line style="stroke:#181818;stroke-width:0.5;stroke-dasharray:5.0,5.0;" x1="265" x2="265" y1="118.1973" y2="643.3257"/><line style="stroke:#181818;stroke-width:0.5;stroke-dasharray:5.0,5.0;" x1="389" x2="389" y1="118.1973" y2="643.3257"/><line style="stroke:#181818;stroke-width:0.5;stroke-dasharray:5.0,5.0;" x1="499" x2="499" y1="118.1973" y2="643.3257"/><line style="stroke:#181818;stroke-width:0.5;stroke-dasharray:5.0,5.0;" x1="609" x2="609" y1="118.1973" y2="643.3257"/><line style="stroke:#181818;stroke-width:0.5;stroke-dasharray:5.0,5.0;" x1="863.5" x2="863.5" y1="118.1973" y2="643.3257"/><text fill="#000000" font-family="sans-serif" font-size="14" lengthAdjust="spacing" textLength="88" x="5" y="115.2305">Administrador</text><ellipse cx="52" cy="50.5986" fill="#E2E2F0" rx="8" ry="8" style="stroke:#181818;stroke-width:0.5;"/><path d="M52,58.5986 L52,85.5986 M39,66.5986 L65,66.5986 M52,85.5986 L39,100.5986 M52,85.5986 L65,100.5986 " fill="none" style="stroke:#181818;stroke-width:0.5;"/><text fill="#000000" font-family="sans-serif" font-size="14" lengthAdjust="spacing" textLength="88" x="5" y="655.4575">Administrador</text><ellipse cx="52" cy="666.9243" fill="#E2E2F0" rx="8" ry="8" style="stroke:#181818;stroke-width:0.5;"/><path d="M52,674.9243 L52,701.9243 M39,682.9243 L65,682.9243 M52,701.9243 L39,716.9243 M52,701.9243 L65,716.9243 " fill="none" style="stroke:#181818;stroke-width:0.5;"/><rect fill="#E2E2F0" height="46.1973" rx="2.5" ry="2.5" style="stroke:#181818;stroke-width:0.5;" width="118" x="206" y="71"/><text fill="#000000" font-family="sans-serif" font-size="14" lengthAdjust="spacing" textLength="22" x="254" y="91.1318">CLI</text><text fill="#000000" font-family="sans-serif" font-size="14" lengthAdjust="spacing" textLength="104" x="213" y="107.2305">(AulaCommand)</text><rect fill="#E2E2F0" height="46.1973" rx="2.5" ry="2.5" style="stroke:#181818;stroke-width:0.5;" width="118" x="206" y="642.3257"/><text fill="#000000" font-family="sans-serif" font-size="14" lengthAdjust="spacing" textLength="22" x="254" y="662.4575">CLI</text><text fill="#000000" font-family="sans-serif" font-size="14" lengthAdjust="spacing" textLength="104" x="213" y="678.5562">(AulaCommand)</text><rect fill="#E2E2F0" height="30.0986" rx="2.5" ry="2.5" style="stroke:#181818;stroke-width:0.5;" width="111" x="334" y="87.0986"/><text fill="#000000" font-family="sans-serif" font-size="14" lengthAdjust="spacing" textLength="97" x="341" y="107.2305">TokenManager</text><rect fill="#E2E2F0" height="30.0986" rx="2.5" ry="2.5" style="stroke:#181818;stroke-width:0.5;" width="111" x="334" y="642.3257"/><text fill="#000000" font-family="sans-serif" font-size="14" lengthAdjust="spacing" textLength="97" x="341" y="662.4575">TokenManager</text><rect fill="#E2E2F0" height="30.0986" rx="2.5" ry="2.5" style="stroke:#181818;stroke-width:0.5;" width="89" x="455" y="87.0986"/><text fill="#000000" font-family="sans-serif" font-size="14" lengthAdjust="spacing" textLength="75" x="462" y="107.2305">AulaService</text><rect fill="#E2E2F0" height="30.0986" rx="2.5" ry="2.5" style="stroke:#181818;stroke-width:0.5;" width="89" x="455" y="642.3257"/><text fill="#000000" font-family="sans-serif" font-size="14" lengthAdjust="spacing" textLength="75" x="462" y="662.4575">AulaService</text><rect fill="#E2E2F0" height="30.0986" rx="2.5" ry="2.5" style="stroke:#181818;stroke-width:0.5;" width="110" x="554" y="87.0986"/><text fill="#000000" font-family="sans-serif" font-size="14" lengthAdjust="spacing" textLength="96" x="561" y="107.2305">AulaRepository</text><rect fill="#E2E2F0" height="30.0986" rx="2.5" ry="2.5" style="stroke:#181818;stroke-width:0.5;" width="110" x="554" y="642.3257"/><text fill="#000000" font-family="sans-serif" font-size="14" lengthAdjust="spacing" textLength="96" x="561" y="662.4575">AulaRepository</text><rect fill="#E2E2F0" height="30.0986" rx="2.5" ry="2.5" style="stroke:#181818;stroke-width:0.5;" width="57" x="835.5" y="87.0986"/><text fill="#000000" font-family="sans-serif" font-size="14" lengthAdjust="spacing" textLength="43" x="842.5" y="107.2305">SQLite</text><rect fill="#E2E2F0" height="30.0986" rx="2.5" ry="2.5" style="stroke:#181818;stroke-width:0.5;" width="57" x="835.5" y="642.3257"/><text fill="#000000" font-family="sans-serif" font-size="14" lengthAdjust="spacing" textLength="43" x="842.5" y="662.4575">SQLite</text><rect fill="#FFFFFF" height="476.1797" style="stroke:#181818;stroke-width:1.0;" width="10" x="260" y="149.146"/><rect fill="#FFFFFF" height="28.9487" style="stroke:#181818;stroke-width:1.0;" width="10" x="384.5" y="178.0947"/><rect fill="#FFFFFF" height="302.4873" style="stroke:#181818;stroke-width:1.0;" width="10" x="494.5" y="293.8896"/><rect fill="#FFFFFF" height="244.5898" style="stroke:#181818;stroke-width:1.0;" width="10" x="604" y="322.8384"/><rect fill="#FFFFFF" height="28.9487" style="stroke:#181818;stroke-width:1.0;" width="10" x="859" y="393.7358"/><rect fill="#FFFFFF" height="28.9487" style="stroke:#181818;stroke-width:1.0;" width="10" x="859" y="451.6333"/><rect fill="#FFFFFF" height="28.9487" style="stroke:#181818;stroke-width:1.0;" width="10" x="859" y="509.5308"/><polygon fill="#181818" points="248,145.146,258,149.146,248,153.146,252,149.146" style="stroke:#181818;stroke-width:1.0;"/><line style="stroke:#181818;stroke-width:1.0;" x1="52" x2="254" y1="149.146" y2="149.146"/><text fill="#000000" font-family="sans-serif" font-size="13" lengthAdjust="spacing" textLength="120" x="59" y="144.3911">sighor aulas delete 1</text><polygon fill="#181818" points="372.5,174.0947,382.5,178.0947,372.5,182.0947,376.5,178.0947" style="stroke:#181818;stroke-width:1.0;"/><line style="stroke:#181818;stroke-width:1.0;" x1="270" x2="378.5" y1="178.0947" y2="178.0947"/><text fill="#000000" font-family="sans-serif" font-size="13" lengthAdjust="spacing" textLength="71" x="277" y="173.3398">load_token()</text><polygon fill="#181818" points="281,203.0435,271,207.0435,281,211.0435,277,207.0435" style="stroke:#181818;stroke-width:1.0;"/><line style="stroke:#181818;stroke-width:1.0;stroke-dasharray:2.0,2.0;" x1="275" x2="388.5" y1="207.0435" y2="207.0435"/><text fill="#000000" font-family="sans-serif" font-size="13" lengthAdjust="spacing" textLength="71" x="287" y="202.2886">token (JWT)</text><polygon fill="#181818" points="63,231.9922,53,235.9922,63,239.9922,59,235.9922" style="stroke:#181818;stroke-width:1.0;"/><line style="stroke:#181818;stroke-width:1.0;" x1="57" x2="259" y1="235.9922" y2="235.9922"/><text fill="#000000" font-family="sans-serif" font-size="13" lengthAdjust="spacing" textLength="184" x="69" y="231.2373">confirm: &#191;Eliminar aula 1? [y/N]</text><polygon fill="#181818" points="248,260.9409,258,264.9409,248,268.9409,252,264.9409" style="stroke:#181818;stroke-width:1.0;"/><line style="stroke:#181818;stroke-width:1.0;" x1="52" x2="254" y1="264.9409" y2="264.9409"/><text fill="#000000" font-family="sans-serif" font-size="13" lengthAdjust="spacing" textLength="17" x="59" y="260.186">"y"</text><polygon fill="#181818" points="482.5,289.8896,492.5,293.8896,482.5,297.8896,486.5,293.8896" style="stroke:#181818;stroke-width:1.0;"/><line style="stroke:#181818;stroke-width:1.0;" x1="270" x2="488.5" y1="293.8896" y2="293.8896"/><text fill="#000000" font-family="sans-serif" font-size="13" lengthAdjust="spacing" textLength="50" x="277" y="289.1348">delete(1)</text><polygon fill="#181818" points="592,318.8384,602,322.8384,592,326.8384,596,322.8384" style="stroke:#181818;stroke-width:1.0;"/><line style="stroke:#181818;stroke-width:1.0;" x1="504.5" x2="598" y1="322.8384" y2="322.8384"/><text fill="#000000" font-family="sans-serif" font-size="13" lengthAdjust="spacing" textLength="50" x="511.5" y="318.0835">delete(1)</text><line style="stroke:#181818;stroke-width:1.0;" x1="614" x2="656" y1="351.7871" y2="351.7871"/><line style="stroke:#181818;stroke-width:1.0;" x1="656" x2="656" y1="351.7871" y2="364.7871"/><line style="stroke:#181818;stroke-width:1.0;" x1="615" x2="656" y1="364.7871" y2="364.7871"/><polygon fill="#181818" points="625,360.7871,615,364.7871,625,368.7871,621,364.7871" style="stroke:#181818;stroke-width:1.0;"/><text fill="#000000" font-family="sans-serif" font-size="13" lengthAdjust="spacing" textLength="74" x="621" y="347.0322">find_by_id(1)</text><polygon fill="#181818" points="847,389.7358,857,393.7358,847,397.7358,851,393.7358" style="stroke:#181818;stroke-width:1.0;"/><line style="stroke:#181818;stroke-width:1.0;" x1="614" x2="853" y1="393.7358" y2="393.7358"/><text fill="#000000" font-family="sans-serif" font-size="13" lengthAdjust="spacing" textLength="226" x="621" y="388.981">SELECT * FROM aulas WHERE id = 1</text><polygon fill="#181818" points="625,418.6846,615,422.6846,625,426.6846,621,422.6846" style="stroke:#181818;stroke-width:1.0;"/><line style="stroke:#181818;stroke-width:1.0;stroke-dasharray:2.0,2.0;" x1="619" x2="863" y1="422.6846" y2="422.6846"/><text fill="#000000" font-family="sans-serif" font-size="13" lengthAdjust="spacing" textLength="79" x="631" y="417.9297">Aula(id=1, ...)</text><polygon fill="#181818" points="847,447.6333,857,451.6333,847,455.6333,851,451.6333" style="stroke:#181818;stroke-width:1.0;"/><line style="stroke:#181818;stroke-width:1.0;" x1="614" x2="853" y1="451.6333" y2="451.6333"/><text fill="#000000" font-family="sans-serif" font-size="13" lengthAdjust="spacing" textLength="217" x="621" y="446.8784">DELETE FROM aulas WHERE id = 1</text><polygon fill="#181818" points="625,476.582,615,480.582,625,484.582,621,480.582" style="stroke:#181818;stroke-width:1.0;"/><line style="stroke:#181818;stroke-width:1.0;stroke-dasharray:2.0,2.0;" x1="619" x2="863" y1="480.582" y2="480.582"/><text fill="#000000" font-family="sans-serif" font-size="13" lengthAdjust="spacing" textLength="19" x="631" y="475.8271">OK</text><polygon fill="#181818" points="847,505.5308,857,509.5308,847,513.5308,851,509.5308" style="stroke:#181818;stroke-width:1.0;"/><line style="stroke:#181818;stroke-width:1.0;" x1="614" x2="853" y1="509.5308" y2="509.5308"/><text fill="#000000" font-family="sans-serif" font-size="13" lengthAdjust="spacing" textLength="53" x="621" y="504.7759">COMMIT</text><polygon fill="#181818" points="625,534.4795,615,538.4795,625,542.4795,621,538.4795" style="stroke:#181818;stroke-width:1.0;"/><line style="stroke:#181818;stroke-width:1.0;stroke-dasharray:2.0,2.0;" x1="619" x2="863" y1="538.4795" y2="538.4795"/><text fill="#000000" font-family="sans-serif" font-size="13" lengthAdjust="spacing" textLength="19" x="631" y="533.7246">OK</text><polygon fill="#181818" points="515.5,563.4282,505.5,567.4282,515.5,571.4282,511.5,567.4282" style="stroke:#181818;stroke-width:1.0;"/><line style="stroke:#181818;stroke-width:1.0;stroke-dasharray:2.0,2.0;" x1="509.5" x2="608" y1="567.4282" y2="567.4282"/><text fill="#000000" font-family="sans-serif" font-size="13" lengthAdjust="spacing" textLength="26" x="521.5" y="562.6733">True</text><polygon fill="#181818" points="281,592.377,271,596.377,281,600.377,277,596.377" style="stroke:#181818;stroke-width:1.0;"/><line style="stroke:#181818;stroke-width:1.0;stroke-dasharray:2.0,2.0;" x1="275" x2="498.5" y1="596.377" y2="596.377"/><text fill="#000000" font-family="sans-serif" font-size="13" lengthAdjust="spacing" textLength="26" x="287" y="591.6221">True</text><polygon fill="#181818" points="63,621.3257,53,625.3257,63,629.3257,59,625.3257" style="stroke:#181818;stroke-width:1.0;"/><line style="stroke:#181818;stroke-width:1.0;stroke-dasharray:2.0,2.0;" x1="57" x2="264" y1="625.3257" y2="625.3257"/><text fill="#000000" font-family="sans-serif" font-size="13" lengthAdjust="spacing" textLength="182" x="69" y="620.5708">"Aula eliminada correctamente"</text><!--SRC=[bPBTIiD048NlynH3hrBHIcy3Ab8Z_hGMcq0lLCeqEzR1P5CsMw5F9_XaxcpQDAqYUBFiPh-SFNDcBDkSu8fnOR10K0G9PIlI6MC4SSu5QpHmkSeHmi7m5XABMc5UQke60MQsT9VAGLnPWygTi0AK3y4IZUMCbwWjTDolppeKcK5P54wYsn4ootcVIyjtqYFKk23Z2IiVzXbHISXyS4OUgUhzJsX2ox9YPt7jEUEE-r3oE6HRYwYvAqTymycvs8gWuiMRrEE4t3NbP0dwKZ9_eDkAzS0jmdkJ4UGbgfdVXzqTM5VWLpZPYjV7y6wQTWD51-nMrlk982lrAviYWg_FfY7Y2leNyBG-VNWvCDvPTng9JJRHfe2mtpAspItOR8INZ7w5VNY1h3libRMQpTSpLe8sbseUGH8Fuq4AHt0z6Oys6KvluaaChE2idQCBNirzCBMeD2vaTTO_XbwljvUEzAZzo9Lx98t__yJu_Y_LmNWqkat__tSxxTIig4tLwJKvRpjrY3KTyTtRJO2VPg2w-GhTH1X3cSM2j1lVje9CvJS0]--></g></svg>