<?plantuml 1.2026.2?><svg xmlns="http://www.w3.org/2000/svg" xmlns:xlink="http://www.w3.org/1999/xlink" contentStyleType="text/css" data-diagram-type="SEQUENCE" height="824px" preserveAspectRatio="none" style="width:1261px;height:824px;background:#FFFFFF;" version="1.1" viewBox="0 0 1261 824" width="1261px" zoomAndPan="magnify"><title>Diagrama de Secuencia - Editar Curso</title><defs/><g><text fill="#000000" font-family="sans-serif" font-size="14" font-weight="bold" lengthAdjust="spacing" textLength="259.601" x="502.2498" y="29.9659">Diagrama de Secuencia - Editar Curso</text><g><title>Frontend .React.</title><rect fill="#FFFFFF" height="565.0023" style="stroke:#181818;stroke-width:1;" width="10" x="343.9271" y="157.8419"/></g><g><title>API .FastAPI.</title><rect fill="#FFFFFF" height="393.4722" style="stroke:#181818;stroke-width:1;" width="10" x="597.5673" y="252.9599"/></g><g><title>CursoService</title><rect fill="#FFFFFF" height="330.0602" style="stroke:#181818;stroke-width:1;" width="10" x="810.9724" y="284.6659"/></g><g><title>CursoRepository</title><rect fill="#FFFFFF" height="95.118" style="stroke:#181818;stroke-width:1;" width="10" x="956.1745" y="316.3719"/></g><g><title>CursoRepository</title><rect fill="#FFFFFF" height="95.118" style="stroke:#181818;stroke-width:1;" width="10" x="956.1745" y="487.902"/></g><g><title>Base de Datos</title><rect fill="#FFFFFF" height="31.706" style="stroke:#181818;stroke-width:1;" width="10" x="1205.2778" y="348.0779"/></g><g><title>Base de Datos</title><rect fill="#FFFFFF" height="31.706" style="stroke:#181818;stroke-width:1;" width="10" x="1205.2778" y="519.608"/></g><g class="participant-lifeline" data-entity-uid="part1" data-qualified-name="Admin" id="part1-lifeline"><g><title>Administrador</title><rect fill="#000000" fill-opacity="0.00000" height="616.7083" width="8" x="51.3898" y="124.1358"/><line style="stroke:#181818;stroke-width:0.5;stroke-dasharray:5,5;" x1="55" x2="55" y1="124.1358" y2="740.8441"/></g></g><g class="participant-lifeline" data-entity-uid="part2" data-qualified-name="FE" id="part2-lifeline"><g><title>Frontend .React.</title><rect fill="#000000" fill-opacity="0.00000" height="616.7083" width="8" x="344.9271" y="124.1358"/><line style="stroke:#181818;stroke-width:0.5;stroke-dasharray:5,5;" x1="348.6003" x2="348.6003" y1="124.1358" y2="740.8441"/></g></g><g class="participant-lifeline" data-entity-uid="part3" data-qualified-name="API" id="part3-lifeline"><g><title>API .FastAPI.</title><rect fill="#000000" fill-opacity="0.00000" height="616.7083" width="8" x="598.5673" y="124.1358"/><line style="stroke:#181818;stroke-width:0.5;stroke-dasharray:5,5;" x1="601.9454" x2="601.9454" y1="124.1358" y2="740.8441"/></g></g><g class="participant-lifeline" data-entity-uid="part4" data-qualified-name="Service" id="part4-lifeline"><g><title>CursoService</title><rect fill="#000000" fill-opacity="0.00000" height="616.7083" width="8" x="811.9724" y="124.1358"/><line style="stroke:#181818;stroke-width:0.5;stroke-dasharray:5,5;" x1="815.3916" x2="815.3916" y1="124.1358" y2="740.8441"/></g></g><g class="participant-lifeline" data-entity-uid="part5" data-qualified-name="Repo" id="part5-lifeline"><g><title>CursoRepository</title><rect fill="#000000" fill-opacity="0.00000" height="616.7083" width="8" x="957.1745" y="124.1358"/><line style="stroke:#181818;stroke-width:0.5;stroke-dasharray:5,5;" x1="960.7217" x2="960.7217" y1="124.1358" y2="740.8441"/></g></g><g class="participant-lifeline" data-entity-uid="part6" data-qualified-name="DB" id="part6-lifeline"><g><title>Base de Datos</title><rect fill="#000000" fill-opacity="0.00000" height="616.7083" width="8" x="1206.2778" y="124.1358"/><line style="stroke:#181818;stroke-width:0.5;stroke-dasharray:5,5;" x1="1209.455" x2="1209.455" y1="124.1358" y2="740.8441"/></g></g><g class="participant participant-head" data-entity-uid="part1" data-qualified-name="Admin" id="part1-head"><text fill="#000000" font-family="sans-serif" font-size="14" lengthAdjust="spacing" textLength="94.7797" x="5" y="120.0339">Administrador</text><ellipse cx="55.3898" cy="53.5679" fill="#E2E2F0" rx="8" ry="8" style="stroke:#181818;stroke-width:0.5;"/><path d="M55.3898,61.5679 L55.3898,88.5679 M42.3898,69.5679 L68.3898,69.5679 M55.3898,88.5679 L42.3898,103.5679 M55.3898,88.5679 L68.3898,103.5679" fill="none" style="stroke:#181818;stroke-width:0.5;"/></g><g class="participant participant-tail" data-entity-uid="part1" data-qualified-name="Admin" id="part1-tail"><text fill="#000000" font-family="sans-serif" font-size="14" lengthAdjust="spacing" textLength="94.7797" x="5" y="754.8101">Administrador</text><ellipse cx="55.3898" cy="767.412" fill="#E2E2F0" rx="8" ry="8" style="stroke:#181818;stroke-width:0.5;"/><path d="M55.3898,775.412 L55.3898,802.412 M42.3898,783.412 L68.3898,783.412 M55.3898,802.412 L42.3898,817.412 M55.3898,802.412 L68.3898,817.412" fill="none" style="stroke:#181818;stroke-width:0.5;"/></g><g class="participant participant-head" data-entity-uid="part2" data-qualified-name="FE" id="part2-head"><rect fill="#E2E2F0" height="33.0679" rx="2.5" ry="2.5" style="stroke:#181818;stroke-width:0.5;" width="122.6536" x="287.6003" y="90.0679"/><text fill="#000000" font-family="sans-serif" font-size="14" lengthAdjust="spacing" textLength="108.6536" x="294.6003" y="112.0339">Frontend (React)</text></g><g class="participant participant-tail" data-entity-uid="part2" data-qualified-name="FE" id="part2-tail"><rect fill="#E2E2F0" height="33.0679" rx="2.5" ry="2.5" style="stroke:#181818;stroke-width:0.5;" width="122.6536" x="287.6003" y="739.8441"/><text fill="#000000" font-family="sans-serif" font-size="14" lengthAdjust="spacing" textLength="108.6536" x="294.6003" y="761.8101">Frontend (React)</text></g><g class="participant participant-head" data-entity-uid="part3" data-qualified-name="API" id="part3-head"><rect fill="#E2E2F0" height="33.0679" rx="2.5" ry="2.5" style="stroke:#181818;stroke-width:0.5;" width="97.2437" x="553.9454" y="90.0679"/><text fill="#000000" font-family="sans-serif" font-size="14" lengthAdjust="spacing" textLength="83.2437" x="560.9454" y="112.0339">API (FastAPI)</text></g><g class="participant participant-tail" data-entity-uid="part3" data-qualified-name="API" id="part3-tail"><rect fill="#E2E2F0" height="33.0679" rx="2.5" ry="2.5" style="stroke:#181818;stroke-width:0.5;" width="97.2437" x="553.9454" y="739.8441"/><text fill="#000000" font-family="sans-serif" font-size="14" lengthAdjust="spacing" textLength="83.2437" x="560.9454" y="761.8101">API (FastAPI)</text></g><g class="participant participant-head" data-entity-uid="part4" data-qualified-name="Service" id="part4-head"><rect fill="#E2E2F0" height="33.0679" rx="2.5" ry="2.5" style="stroke:#181818;stroke-width:0.5;" width="99.1617" x="766.3916" y="90.0679"/><text fill="#000000" font-family="sans-serif" font-size="14" lengthAdjust="spacing" textLength="85.1617" x="773.3916" y="112.0339">CursoService</text></g><g class="participant participant-tail" data-entity-uid="part4" data-qualified-name="Service" id="part4-tail"><rect fill="#E2E2F0" height="33.0679" rx="2.5" ry="2.5" style="stroke:#181818;stroke-width:0.5;" width="99.1617" x="766.3916" y="739.8441"/><text fill="#000000" font-family="sans-serif" font-size="14" lengthAdjust="spacing" textLength="85.1617" x="773.3916" y="761.8101">CursoService</text></g><g class="participant participant-head" data-entity-uid="part5" data-qualified-name="Repo" id="part5-head"><rect fill="#E2E2F0" height="33.0679" rx="2.5" ry="2.5" style="stroke:#181818;stroke-width:0.5;" width="122.9056" x="899.7217" y="90.0679"/><text fill="#000000" font-family="sans-serif" font-size="14" lengthAdjust="spacing" textLength="108.9056" x="906.7217" y="112.0339">CursoRepository</text></g><g class="participant participant-tail" data-entity-uid="part5" data-qualified-name="Repo" id="part5-tail"><rect fill="#E2E2F0" height="33.0679" rx="2.5" ry="2.5" style="stroke:#181818;stroke-width:0.5;" width="122.9056" x="899.7217" y="739.8441"/><text fill="#000000" font-family="sans-serif" font-size="14" lengthAdjust="spacing" textLength="108.9056" x="906.7217" y="761.8101">CursoRepository</text></g><g class="participant participant-head" data-entity-uid="part6" data-qualified-name="DB" id="part6-head"><text fill="#000000" font-family="sans-serif" font-size="14" lengthAdjust="spacing" textLength="93.6456" x="1160.455" y="120.0339">Base de Datos</text><path d="M1192.2778,69.0679 C1192.2778,59.0679 1210.2778,59.0679 1210.2778,59.0679 C1210.2778,59.0679 1228.2778,59.0679 1228.2778,69.0679 L1228.2778,95.0679 C1228.2778,105.0679 1210.2778,105.0679 1210.2778,105.0679 C1210.2778,105.0679 1192.2778,105.0679 1192.2778,95.0679 L1192.2778,69.0679" fill="#E2E2F0" style="stroke:#181818;stroke-width:0.5;"/><path d="M1192.2778,69.0679 C1192.2778,79.0679 1210.2778,79.0679 1210.2778,79.0679 C1210.2778,79.0679 1228.2778,79.0679 1228.2778,69.0679" fill="none" style="stroke:#181818;stroke-width:0.5;"/></g><g class="participant participant-tail" data-entity-uid="part6" data-qualified-name="DB" id="part6-tail"><text fill="#000000" font-family="sans-serif" font-size="14" lengthAdjust="spacing" textLength="93.6456" x="1160.455" y="754.8101">Base de Datos</text><path d="M1192.2778,768.912 C1192.2778,758.912 1210.2778,758.912 1210.2778,758.912 C1210.2778,758.912 1228.2778,758.912 1228.2778,768.912 L1228.2778,794.912 C1228.2778,804.912 1210.2778,804.912 1210.2778,804.912 C1210.2778,804.912 1192.2778,804.912 1192.2778,794.912 L1192.2778,768.912" fill="#E2E2F0" style="stroke:#181818;stroke-width:0.5;"/><path d="M1192.2778,768.912 C1192.2778,778.912 1210.2778,778.912 1210.2778,778.912 C1210.2778,778.912 1228.2778,778.912 1228.2778,768.912" fill="none" style="stroke:#181818;stroke-width:0.5;"/></g><g><title>Frontend .React.</title><rect fill="#FFFFFF" height="565.0023" style="stroke:#181818;stroke-width:1;" width="10" x="343.9271" y="157.8419"/></g><g><title>API .FastAPI.</title><rect fill="#FFFFFF" height="393.4722" style="stroke:#181818;stroke-width:1;" width="10" x="597.5673" y="252.9599"/></g><g><title>CursoService</title><rect fill="#FFFFFF" height="330.0602" style="stroke:#181818;stroke-width:1;" width="10" x="810.9724" y="284.6659"/></g><g><title>CursoRepository</title><rect fill="#FFFFFF" height="95.118" style="stroke:#181818;stroke-width:1;" width="10" x="956.1745" y="316.3719"/></g><g><title>CursoRepository</title><rect fill="#FFFFFF" height="95.118" style="stroke:#181818;stroke-width:1;" width="10" x="956.1745" y="487.902"/></g><g><title>Base de Datos</title><rect fill="#FFFFFF" height="31.706" style="stroke:#181818;stroke-width:1;" width="10" x="1205.2778" y="348.0779"/></g><g><title>Base de Datos</title><rect fill="#FFFFFF" height="31.706" style="stroke:#181818;stroke-width:1;" width="10" x="1205.2778" y="519.608"/></g><g class="message" data-entity-1="part1" data-entity-2="part2" id="msg1"><polygon fill="#181818" points="331.9271,153.8419,341.9271,157.8419,331.9271,161.8419,335.9271,157.8419" style="stroke:#181818;stroke-width:1;"/><line style="stroke:#181818;stroke-width:1;" x1="55.3898" x2="337.9271" y1="157.8419" y2="157.8419"/><text fill="#000000" font-family="sans-serif" font-size="13" lengthAdjust="spacing" textLength="164.9702" x="62.3898" y="152.0328">Clic en "Editar" (en una fila)</text></g><g class="message" data-entity-1="part2" data-entity-2="part1" id="msg2"><polygon fill="#181818" points="66.3898,185.5479,56.3898,189.5479,66.3898,193.5479,62.3898,189.5479" style="stroke:#181818;stroke-width:1;"/><line style="stroke:#181818;stroke-width:1;stroke-dasharray:2,2;" x1="60.3898" x2="342.9271" y1="189.5479" y2="189.5479"/><text fill="#000000" font-family="sans-serif" font-size="13" lengthAdjust="spacing" textLength="262.7172" x="72.3898" y="183.7389">Mostrar Formulario con datos precargados</text></g><g class="message" data-entity-1="part1" data-entity-2="part2" id="msg3"><polygon fill="#181818" points="331.9271,217.2539,341.9271,221.2539,331.9271,225.2539,335.9271,221.2539" style="stroke:#181818;stroke-width:1;"/><line style="stroke:#181818;stroke-width:1;" x1="55.3898" x2="337.9271" y1="221.2539" y2="221.2539"/><text fill="#000000" font-family="sans-serif" font-size="13" lengthAdjust="spacing" textLength="154.0241" x="62.3898" y="215.4449">Modifica datos y Guardar</text></g><g class="message" data-entity-1="part2" data-entity-2="part3" id="msg4"><polygon fill="#181818" points="585.5673,248.9599,595.5673,252.9599,585.5673,256.9599,589.5673,252.9599" style="stroke:#181818;stroke-width:1;"/><line style="stroke:#181818;stroke-width:1;" x1="353.9271" x2="591.5673" y1="252.9599" y2="252.9599"/><text fill="#000000" font-family="sans-serif" font-size="13" lengthAdjust="spacing" textLength="224.6402" x="360.9271" y="247.1509">PUT /cursos/{id} (CursoUpdate JSON)</text></g><g class="message" data-entity-1="part3" data-entity-2="part4" id="msg5"><polygon fill="#181818" points="798.9724,280.6659,808.9724,284.6659,798.9724,288.6659,802.9724,284.6659" style="stroke:#181818;stroke-width:1;"/><line style="stroke:#181818;stroke-width:1;" x1="607.5673" x2="804.9724" y1="284.6659" y2="284.6659"/><text fill="#000000" font-family="sans-serif" font-size="13" lengthAdjust="spacing" textLength="184.4052" x="614.5673" y="278.8569">editar_curso(id, curso_update)</text></g><g class="message" data-entity-1="part4" data-entity-2="part5" id="msg6"><polygon fill="#181818" points="944.1745,312.3719,954.1745,316.3719,944.1745,320.3719,948.1745,316.3719" style="stroke:#181818;stroke-width:1;"/><line style="stroke:#181818;stroke-width:1;" x1="820.9724" x2="950.1745" y1="316.3719" y2="316.3719"/><text fill="#000000" font-family="sans-serif" font-size="13" lengthAdjust="spacing" textLength="76.6871" x="827.9724" y="310.5629">get_by_id(id)</text></g><g class="message" data-entity-1="part5" data-entity-2="part6" id="msg7"><polygon fill="#181818" points="1193.2778,344.0779,1203.2778,348.0779,1193.2778,352.0779,1197.2778,348.0779" style="stroke:#181818;stroke-width:1;"/><line style="stroke:#181818;stroke-width:1;" x1="966.1745" x2="1199.2778" y1="348.0779" y2="348.0779"/><text fill="#000000" font-family="sans-serif" font-size="13" lengthAdjust="spacing" textLength="220.1033" x="973.1745" y="342.2689">SELECT * FROM cursos WHERE id = ?</text></g><g class="message" data-entity-1="part6" data-entity-2="part5" id="msg8"><polygon fill="#181818" points="977.1745,375.784,967.1745,379.784,977.1745,383.784,973.1745,379.784" style="stroke:#181818;stroke-width:1;"/><line style="stroke:#181818;stroke-width:1;stroke-dasharray:2,2;" x1="971.1745" x2="1209.2778" y1="379.784" y2="379.784"/><text fill="#000000" font-family="sans-serif" font-size="13" lengthAdjust="spacing" textLength="94.9651" x="983.1745" y="373.975">Curso existente</text></g><g class="message" data-entity-1="part5" data-entity-2="part4" id="msg9"><polygon fill="#181818" points="831.9724,407.49,821.9724,411.49,831.9724,415.49,827.9724,411.49" style="stroke:#181818;stroke-width:1;"/><line style="stroke:#181818;stroke-width:1;stroke-dasharray:2,2;" x1="825.9724" x2="960.1745" y1="411.49" y2="411.49"/><text fill="#000000" font-family="sans-serif" font-size="13" lengthAdjust="spacing" textLength="35.711" x="837.9724" y="405.681">Curso</text></g><g class="message" data-entity-1="part4" data-entity-2="part4" id="msg10"><line style="stroke:#181818;stroke-width:1;" x1="820.9724" x2="862.9724" y1="443.196" y2="443.196"/><line style="stroke:#181818;stroke-width:1;" x1="862.9724" x2="862.9724" y1="443.196" y2="456.196"/><line style="stroke:#181818;stroke-width:1;" x1="821.9724" x2="862.9724" y1="456.196" y2="456.196"/><polygon fill="#181818" points="831.9724,452.196,821.9724,456.196,831.9724,460.196,827.9724,456.196" style="stroke:#181818;stroke-width:1;"/><text fill="#000000" font-family="sans-serif" font-size="13" lengthAdjust="spacing" textLength="111.2021" x="827.9724" y="437.387">Actualizar campos</text></g><g class="message" data-entity-1="part4" data-entity-2="part5" id="msg11"><polygon fill="#181818" points="944.1745,483.902,954.1745,487.902,944.1745,491.902,948.1745,487.902" style="stroke:#181818;stroke-width:1;"/><line style="stroke:#181818;stroke-width:1;" x1="820.9724" x2="950.1745" y1="487.902" y2="487.902"/><text fill="#000000" font-family="sans-serif" font-size="13" lengthAdjust="spacing" textLength="84.8771" x="827.9724" y="482.093">update(curso)</text></g><g class="message" data-entity-1="part5" data-entity-2="part6" id="msg12"><polygon fill="#181818" points="1193.2778,515.608,1203.2778,519.608,1193.2778,523.608,1197.2778,519.608" style="stroke:#181818;stroke-width:1;"/><line style="stroke:#181818;stroke-width:1;" x1="966.1745" x2="1199.2778" y1="519.608" y2="519.608"/><text fill="#000000" font-family="sans-serif" font-size="13" lengthAdjust="spacing" textLength="213.9803" x="973.1745" y="513.799">UPDATE cursos SET ... WHERE id = ?</text></g><g class="message" data-entity-1="part6" data-entity-2="part5" id="msg13"><polygon fill="#181818" points="977.1745,547.314,967.1745,551.314,977.1745,555.314,973.1745,551.314" style="stroke:#181818;stroke-width:1;"/><line style="stroke:#181818;stroke-width:1;stroke-dasharray:2,2;" x1="971.1745" x2="1209.2778" y1="551.314" y2="551.314"/><text fill="#000000" font-family="sans-serif" font-size="13" lengthAdjust="spacing" textLength="18.2" x="983.1745" y="545.505">OK</text></g><g class="message" data-entity-1="part5" data-entity-2="part4" id="msg14"><polygon fill="#181818" points="831.9724,579.0201,821.9724,583.0201,831.9724,587.0201,827.9724,583.0201" style="stroke:#181818;stroke-width:1;"/><line style="stroke:#181818;stroke-width:1;stroke-dasharray:2,2;" x1="825.9724" x2="960.1745" y1="583.0201" y2="583.0201"/><text fill="#000000" font-family="sans-serif" font-size="13" lengthAdjust="spacing" textLength="108.6151" x="837.9724" y="577.2111">Curso actualizado</text></g><g class="message" data-entity-1="part4" data-entity-2="part3" id="msg15"><polygon fill="#181818" points="618.5673,610.7261,608.5673,614.7261,618.5673,618.7261,614.5673,614.7261" style="stroke:#181818;stroke-width:1;"/><line style="stroke:#181818;stroke-width:1;stroke-dasharray:2,2;" x1="612.5673" x2="814.9724" y1="614.7261" y2="614.7261"/><text fill="#000000" font-family="sans-serif" font-size="13" lengthAdjust="spacing" textLength="94.8091" x="624.5673" y="608.9171">CursoResponse</text></g><g class="message" data-entity-1="part3" data-entity-2="part2" id="msg16"><polygon fill="#181818" points="364.9271,642.4321,354.9271,646.4321,364.9271,650.4321,360.9271,646.4321" style="stroke:#181818;stroke-width:1;"/><line style="stroke:#181818;stroke-width:1;stroke-dasharray:2,2;" x1="358.9271" x2="601.5673" y1="646.4321" y2="646.4321"/><text fill="#000000" font-family="sans-serif" font-size="13" lengthAdjust="spacing" textLength="124.8781" x="370.9271" y="640.6231">200 OK (Curso JSON)</text></g><g class="message" data-entity-1="part2" data-entity-2="part2" id="msg17"><line style="stroke:#181818;stroke-width:1;" x1="353.9271" x2="395.9271" y1="678.1381" y2="678.1381"/><line style="stroke:#181818;stroke-width:1;" x1="395.9271" x2="395.9271" y1="678.1381" y2="691.1381"/><line style="stroke:#181818;stroke-width:1;" x1="354.9271" x2="395.9271" y1="691.1381" y2="691.1381"/><polygon fill="#181818" points="364.9271,687.1381,354.9271,691.1381,364.9271,695.1381,360.9271,691.1381" style="stroke:#181818;stroke-width:1;"/><text fill="#000000" font-family="sans-serif" font-size="13" lengthAdjust="spacing" textLength="189.3192" x="360.9271" y="672.3291">Actualizar Lista / Notificar &#201;xito</text></g><g class="message" data-entity-1="part2" data-entity-2="part1" id="msg18"><polygon fill="#181818" points="66.3898,718.8441,56.3898,722.8441,66.3898,726.8441,62.3898,722.8441" style="stroke:#181818;stroke-width:1;"/><line style="stroke:#181818;stroke-width:1;stroke-dasharray:2,2;" x1="60.3898" x2="347.9271" y1="722.8441" y2="722.8441"/><text fill="#000000" font-family="sans-serif" font-size="13" lengthAdjust="spacing" textLength="264.5372" x="72.3898" y="717.0351">Mostrar "Curso actualizado correctamente"</text></g><?plantuml-src ZLFBRjim4BpxAmOwAKLj1pqAQ0hRalgA4yCFz6XiICPOm1O5aWhY5ls0VbT_B2GbjpBI1hbGf32xEpCSEdPxXPnfP-X0a0eh9HfL2IOCKKXsP31hZDK34auR91Dvu8gjCoIrIK0MyS-W9kDOS4sLGr8QNJbLIQHBvUik8guipa6JnMUa9LddDot2RyuXSV9AcGSMAYAw_JzGIrLhovxYCGB3SI39qHrPXMGQLgyk9wTj1EJJGIIEuPLdbc6sPm5L8Mb59qZzeQa8zxodYw2U7yYfeA8iCFHLiJp3N0Sp34fj3isU36i8NK66IQYD4cHstYjxFcwk9T-pe0vtnCU6Z2GJcry59p8iDckCHH1dnpzO_aGQbMvg6OXyMTtUz7W5xuAZlhWpAOEAKhQnHShoBU9ksyG6lTgJgzqtz0Z-PTWfjxqxRbdwwXu-cXkMWCod6LR5TJ5RumtAvUsydMBnxLEnBC0Ix_7XRwttFPz6_zeHKHBKeu-KyfaPIDM7jaFwcjemzb2HJ8_v7-H4k8Rs_DtVZQ23JyTpVQqJQIJyahxD8f-iYvEmLR76Q3HwfS3Rhw_J13hnbI_eEsMZoxojTMNFJ3lTPSn25xPtbvUUHXUVBZYzaX2TDdO1tBFjsbyAOOmRxM9O3Nx_UlHlx3yl87ccmxy4ur-0eqEuswG_j2oU0000?></g></svg>