<?plantuml 1.2026.2?><svg xmlns="http://www.w3.org/2000/svg" xmlns:xlink="http://www.w3.org/1999/xlink" contentStyleType="text/css" data-diagram-type="DESCRIPTION" height="547px" preserveAspectRatio="none" style="width:1090px;height:547px;background:#FFFFFF;" version="1.1" viewBox="0 0 1090 547" width="1090px" zoomAndPan="magnify"><defs/><g><!--cluster editarAula--><g class="cluster" data-qualified-name="editarAula" data-source-line="8" id="ent0006"><path d="M8.5,111.07 L92.4497,111.07 A3.75,3.75 0 0 1 94.9497,113.57 L101.9497,136.1379 L881.5,136.1379 A2.5,2.5 0 0 1 884,138.6379 L884,537.84 A2.5,2.5 0 0 1 881.5,540.34 L8.5,540.34 A2.5,2.5 0 0 1 6,537.84 L6,113.57 A2.5,2.5 0 0 1 8.5,111.07" fill="none" style="stroke:#000000;stroke-width:1.5;"/><line style="stroke:#000000;stroke-width:1.5;" x1="6" x2="101.9497" y1="136.1379" y2="136.1379"/><text fill="#000000" font-family="sans-serif" font-size="14" font-weight="bold" lengthAdjust="spacing" textLength="82.9497" x="10" y="128.0359">editarAula()</text></g><!--entity EditarAulaView--><g class="entity" data-qualified-name="editarAula.EditarAulaView" data-source-line="9" id="ent0007"><rect fill="#629EF9" height="39.0679" rx="2.5" ry="2.5" style="stroke:#181818;stroke-width:0.5;" width="118.6716" x="384.66" y="149.07"/><text fill="#000000" font-family="sans-serif" font-size="14" lengthAdjust="spacing" textLength="98.6716" x="394.66" y="174.0359">EditarAulaView</text></g><!--entity AulaController--><g class="entity" data-qualified-name="editarAula.AulaController" data-source-line="10" id="ent0008"><rect fill="#B5BD68" height="39.0679" rx="2.5" ry="2.5" style="stroke:#181818;stroke-width:0.5;" width="115.2416" x="296.38" y="267.14"/><text fill="#000000" font-family="sans-serif" font-size="14" lengthAdjust="spacing" textLength="95.2416" x="306.38" y="292.1059">AulaController</text></g><!--entity AulaRepository--><g class="entity" data-qualified-name="editarAula.AulaRepository" data-source-line="11" id="ent0009"><rect fill="#F2AC4E" height="39.0679" rx="2.5" ry="2.5" style="stroke:#181818;stroke-width:0.5;" width="119.5116" x="113.24" y="385.2"/><text fill="#000000" font-family="sans-serif" font-size="14" lengthAdjust="spacing" textLength="99.5116" x="123.24" y="410.1659">AulaRepository</text></g><!--entity EdificioRepository--><g class="entity" data-qualified-name="editarAula.EdificioRepository" data-source-line="12" id="ent0010"><rect fill="#F2AC4E" height="39.0679" rx="2.5" ry="2.5" style="stroke:#181818;stroke-width:0.5;" width="137.6835" x="389.16" y="385.2"/><text fill="#000000" font-family="sans-serif" font-size="14" lengthAdjust="spacing" textLength="117.6835" x="399.16" y="410.1659">EdificioRepository</text></g><!--entity RecursoRepository--><g class="entity" data-qualified-name="editarAula.RecursoRepository" data-source-line="13" id="ent0011"><rect fill="#F2AC4E" height="39.0679" rx="2.5" ry="2.5" style="stroke:#181818;stroke-width:0.5;" width="143.3815" x="606.31" y="385.2"/><text fill="#000000" font-family="sans-serif" font-size="14" lengthAdjust="spacing" textLength="123.3815" x="616.31" y="410.1659">RecursoRepository</text></g><!--entity Aula--><g class="entity" data-qualified-name="editarAula.Aula" data-source-line="14" id="ent0012"><rect fill="#F2AC4E" height="39.0679" rx="2.5" ry="2.5" style="stroke:#181818;stroke-width:0.5;" width="49.0639" x="148.47" y="485.27"/><text fill="#000000" font-family="sans-serif" font-size="14" lengthAdjust="spacing" textLength="29.0639" x="158.47" y="510.2359">Aula</text></g><!--entity Edificio--><g class="entity" data-qualified-name="editarAula.Edificio" data-source-line="15" id="ent0013"><rect fill="#F2AC4E" height="39.0679" rx="2.5" ry="2.5" style="stroke:#181818;stroke-width:0.5;" width="67.2358" x="424.38" y="485.27"/><text fill="#000000" font-family="sans-serif" font-size="14" lengthAdjust="spacing" textLength="47.2358" x="434.38" y="510.2359">Edificio</text></g><!--entity Recurso--><g class="entity" data-qualified-name="editarAula.Recurso" data-source-line="16" id="ent0014"><rect fill="#F2AC4E" height="39.0679" rx="2.5" ry="2.5" style="stroke:#181818;stroke-width:0.5;" width="72.9338" x="641.53" y="485.27"/><text fill="#000000" font-family="sans-serif" font-size="14" lengthAdjust="spacing" textLength="52.9338" x="651.53" y="510.2359">Recurso</text></g><!--entity AulasAbierto--><g class="entity" data-qualified-name="AulasAbierto" data-source-line="3" id="ent0002"><rect fill="#CDEBA5" height="39.0679" rx="2.5" ry="2.5" style="stroke:#181818;stroke-width:0.5;" width="111.5317" x="237.23" y="7"/><text fill="#000000" font-family="sans-serif" font-size="14" lengthAdjust="spacing" textLength="91.5317" x="247.23" y="31.9659">:Aulas Abierto</text></g><!--entity AulaAbierta--><g class="entity" data-qualified-name="AulaAbierta" data-source-line="4" id="ent0003"><rect fill="#CDEBA5" height="39.0679" rx="2.5" ry="2.5" style="stroke:#181818;stroke-width:0.5;" width="104.2097" x="391.9" y="7"/><text fill="#000000" font-family="sans-serif" font-size="14" lengthAdjust="spacing" textLength="84.2097" x="401.9" y="31.9659">:Aula Abierta</text></g><!--entity CrearAula--><g class="entity" data-qualified-name="CrearAula" data-source-line="5" id="ent0004"><rect fill="#CDEBA5" height="39.0679" rx="2.5" ry="2.5" style="stroke:#181818;stroke-width:0.5;" width="181.5174" x="531.24" y="7"/><text fill="#000000" font-family="sans-serif" font-size="14" lengthAdjust="spacing" textLength="161.5174" x="541.24" y="31.9659">:Collaboration CrearAula</text></g><!--entity AbrirAulas--><g class="entity" data-qualified-name="AbrirAulas" data-source-line="6" id="ent0005"><rect fill="#CDEBA5" height="39.0679" rx="2.5" ry="2.5" style="stroke:#181818;stroke-width:0.5;" width="184.7934" x="899.6" y="267.14"/><text fill="#000000" font-family="sans-serif" font-size="14" lengthAdjust="spacing" textLength="164.7934" x="909.6" y="292.1059">:Collaboration AbrirAulas</text></g><!--link AulasAbierto to EditarAulaView--><g class="link" data-entity-1="ent0002" data-entity-2="ent0007" data-link-type="dependency" data-source-line="19" id="lnk15"><path d="M301.91,46.35 C311.38,66.33 325,95.07 325,95.07 C325,95.07 372.667,124.1168 407.917,145.6068" fill="none" id="AulasAbierto-to-EditarAulaView" style="stroke:#181818;stroke-width:1;"/><polygon fill="#181818" points="413.04,148.73,407.4376,140.6298,408.7708,146.1273,403.2733,147.4605,413.04,148.73" style="stroke:#181818;stroke-width:1;"/><text fill="#000000" font-family="sans-serif" font-size="13" lengthAdjust="spacing" textLength="109.2001" x="326" y="90.967">editarAula(aulaId)</text></g><!--link AulaAbierta to EditarAulaView--><g class="link" data-entity-1="ent0003" data-entity-2="ent0007" data-link-type="dependency" data-source-line="20" id="lnk16"><path d="M444,46.42 C444,73.31 444,116.29 444,143.01" fill="none" id="AulaAbierta-to-EditarAulaView" style="stroke:#181818;stroke-width:1;"/><polygon fill="#181818" points="444,149.01,448,140.01,444,144.01,440,140.01,444,149.01" style="stroke:#181818;stroke-width:1;"/><text fill="#000000" font-family="sans-serif" font-size="13" lengthAdjust="spacing" textLength="109.2001" x="445" y="90.967">editarAula(aulaId)</text></g><!--link CrearAula to EditarAulaView--><g class="link" data-entity-1="ent0004" data-entity-2="ent0007" data-link-type="dependency" data-source-line="21" id="lnk17"><path d="M605.57,46.35 C588.11,66.33 563,95.07 563,95.07 C563,95.07 515.333,124.1168 480.083,145.6068" fill="none" id="CrearAula-to-EditarAulaView" style="stroke:#181818;stroke-width:1;"/><polygon fill="#181818" points="474.96,148.73,484.7267,147.4605,479.2292,146.1273,480.5624,140.6298,474.96,148.73" style="stroke:#181818;stroke-width:1;"/><text fill="#000000" font-family="sans-serif" font-size="13" lengthAdjust="spacing" textLength="135.9411" x="579.82" y="90.967">editarAula(aulaNueva)</text></g><!--link EditarAulaView to AulaController--><g class="link" data-entity-1="ent0007" data-entity-2="ent0008" data-link-type="dependency" data-source-line="23" id="lnk18"><path d="M384.3,180.49 C305.88,194.8 178,218.14 178,218.14 C178,218.14 178,237.14 178,237.14 C178,237.14 238.8357,253.9155 290.0957,268.0455" fill="none" id="EditarAulaView-to-AulaController" style="stroke:#181818;stroke-width:1;"/><polygon fill="#181818" points="295.88,269.64,288.2666,263.3921,291.0598,268.3113,286.1406,271.1045,295.88,269.64" style="stroke:#181818;stroke-width:1;"/><text fill="#000000" font-family="sans-serif" font-size="13" lengthAdjust="spacing" textLength="221.8452" x="179" y="233.037">cargarAulaParaEdici&#243;n(aulaId) : Aula</text></g><!--link EditarAulaView to AulaController--><g class="link" data-entity-1="ent0007" data-entity-2="ent0008" data-link-type="dependency" data-source-line="29" id="lnk22"><path d="M433.14,188.41 C421.6,208.4 405,237.14 405,237.14 C405,237.14 392.5261,249.0034 378.2061,262.6334" fill="none" id="EditarAulaView-to-AulaController-1" style="stroke:#181818;stroke-width:1;"/><polygon fill="#181818" points="373.86,266.77,383.1368,263.4624,377.4817,263.3228,377.6213,257.6677,373.86,266.77" style="stroke:#181818;stroke-width:1;"/><text fill="#000000" font-family="sans-serif" font-size="13" lengthAdjust="spacing" textLength="422.8253" x="416.46" y="233.037">modificarCampos(aulaId, cambios, id_edificio, ids_recursos) : boolean</text></g><!--link AulaController to AulaRepository--><g class="link" data-entity-1="ent0008" data-entity-2="ent0009" data-link-type="dependency" data-source-line="25" id="lnk19"><path d="M296.16,297.03 C208.98,311.13 54,336.2 54,336.2 C54,336.2 54,355.2 54,355.2 C54,355.2 87.6839,368.945 121.0939,382.565" fill="none" id="AulaController-to-AulaRepository" style="stroke:#181818;stroke-width:1;"/><polygon fill="#181818" points="126.65,384.83,119.8259,377.7285,122.02,382.9425,116.8059,385.1365,126.65,384.83" style="stroke:#181818;stroke-width:1;"/><text fill="#000000" font-family="sans-serif" font-size="13" lengthAdjust="spacing" textLength="165.5291" x="55" y="351.097">obtenerPorId(aulaId) : Aula</text></g><!--link AulaController to AulaRepository--><g class="link" data-entity-1="ent0008" data-entity-2="ent0009" data-link-type="dependency" data-source-line="31" id="lnk23"><path d="M316.22,306.57 C288.98,320.2 257,336.2 257,336.2 C257,336.2 225.9251,361.1792 201.0751,381.1692" fill="none" id="AulaController-to-AulaRepository-1" style="stroke:#181818;stroke-width:1;"/><polygon fill="#181818" points="196.4,384.93,205.9198,382.4056,200.2959,381.796,200.9055,376.1721,196.4,384.93" style="stroke:#181818;stroke-width:1;"/><text fill="#000000" font-family="sans-serif" font-size="13" lengthAdjust="spacing" textLength="152.7891" x="258" y="351.097">actualizar(aula) : boolean</text></g><!--link AulaController to EdificioRepository--><g class="link" data-entity-1="ent0008" data-entity-2="ent0010" data-link-type="dependency" data-source-line="26" id="lnk20"><path d="M379.32,306.57 C397.57,320.2 419,336.2 419,336.2 C419,336.2 432.6002,359.7437 444.1402,379.7337" fill="none" id="AulaController-to-EdificioRepository" style="stroke:#181818;stroke-width:1;"/><polygon fill="#181818" points="447.14,384.93,446.1046,375.1357,444.6402,380.5998,439.1762,379.1354,447.14,384.93" style="stroke:#181818;stroke-width:1;"/><text fill="#000000" font-family="sans-serif" font-size="13" lengthAdjust="spacing" textLength="178.2432" x="430.46" y="351.097">listarEdificios() : List&lt;Edificio&gt;</text></g><!--link AulaController to RecursoRepository--><g class="link" data-entity-1="ent0008" data-entity-2="ent0011" data-link-type="dependency" data-source-line="27" id="lnk21"><path d="M412.04,298.38 C489.49,312.67 617,336.2 617,336.2 C617,336.2 638.939,360.4868 656.989,380.4768" fill="none" id="AulaController-to-RecursoRepository" style="stroke:#181818;stroke-width:1;"/><polygon fill="#181818" points="661.01,384.93,657.9472,375.5695,657.6591,381.219,652.0096,380.9309,661.01,384.93" style="stroke:#181818;stroke-width:1;"/><text fill="#000000" font-family="sans-serif" font-size="13" lengthAdjust="spacing" textLength="188.8252" x="634.36" y="351.097">listarRecursos() : List&lt;Recurso&gt;</text></g><!--link AulaRepository to Aula--><g class="link" data-entity-1="ent0009" data-entity-2="ent0012" data-link-type="association" data-source-line="33" id="lnk24"><path d="M173,424.65 C173,442.01 173,467.61 173,484.96" fill="none" id="AulaRepository-Aula" style="stroke:#181818;stroke-width:1;"/></g><!--link EdificioRepository to Edificio--><g class="link" data-entity-1="ent0010" data-entity-2="ent0013" data-link-type="association" data-source-line="34" id="lnk25"><path d="M458,424.65 C458,442.01 458,467.61 458,484.96" fill="none" id="EdificioRepository-Edificio" style="stroke:#181818;stroke-width:1;"/></g><!--link RecursoRepository to Recurso--><g class="link" data-entity-1="ent0011" data-entity-2="ent0014" data-link-type="association" data-source-line="35" id="lnk26"><path d="M678,424.65 C678,442.01 678,467.61 678,484.96" fill="none" id="RecursoRepository-Recurso" style="stroke:#181818;stroke-width:1;"/></g><!--link EditarAulaView to AbrirAulas--><g class="link" data-entity-1="ent0007" data-entity-2="ent0005" data-link-type="dependency" data-source-line="37" id="lnk27"><path d="M503.46,176.76 C615.57,190.26 847,218.14 847,218.14 C847,218.14 902.9014,244.1659 945.7814,264.1459" fill="none" id="EditarAulaView-to-AbrirAulas" style="stroke:#181818;stroke-width:1;stroke-dasharray:7,7;"/><polygon fill="#181818" points="951.22,266.68,944.7515,259.2531,946.6878,264.5682,941.3727,266.5045,951.22,266.68" style="stroke:#181818;stroke-width:1;"/><text fill="#000000" font-family="sans-serif" font-size="13" lengthAdjust="spacing" textLength="131.3521" x="886.89" y="233.037">&#171;include&#187; abrirAulas()</text></g><?plantuml-src ZLHTI-j047tVNp7KbnQi3wAYeGHYh21SH7pmLIR9M1Qtks6oKNh5N-LFk7_ixkQhQLArUIYPcNFcp9xPj7YLEaV6DIYfoMvoWjoeZG-4O4ejwfKYE8flbjVHEKo2g5HOG9H8OcicuDzzfabyIsaOs36QU2yXDafXOXYjD1fY9cHFgRXTT00pIbXMsAAMxK8XSanVSKL0cRHrFu-ORCFfR08V0jpJqxaulLhUNi6oGpr9UX-2alCakxYi3XaRRTcDH3m4tPv6yTco0ZrIRWff3M--0Jcv5vbAyolmaTAIYzznbNq_Q_si83w5wAyTvlDmu4hGitQAxkSkcudUuW-bTFi-X71VqXlEXDY5mJnprDrz190YhshCWxl_Zf7AVr-wrOMWTadiqgeXTfSMW4aiQU87mtVPaB-7Fbvdu3w-mWtSLegfv_znkKMR2lTr6ksxRTGKUdsQJ3ZsPeyrQrEf8iUuTgsRCnqxozQ9c-uOPFPCpM0-A9wv4VHwYJ6AK1za7QQsH2N_8bSY8_eMw-YresFxVAcxjoDFVBMzjiF3dvo4lN-501OBgLDLPXI6W5r-EXF_0G00?></g></svg>