<?xml version="1.0" encoding="us-ascii" standalone="no"?><svg xmlns="http://www.w3.org/2000/svg" xmlns:xlink="http://www.w3.org/1999/xlink" contentStyleType="text/css" height="529px" preserveAspectRatio="none" style="width:782px;height:529px;background:#FEFEFE;" version="1.1" viewBox="0 0 782 529" width="782px" zoomAndPan="magnify"><defs/><g><rect fill="#FEFEFE" height="529" style="stroke:none;stroke-width:1.0;" width="782" x="0" y="0"/><rect fill="#FFFFFF" height="318.436" style="stroke:#181818;stroke-width:1.0;" width="10" x="159.5" y="112.0474"/><rect fill="#FFFFFF" height="260.5386" style="stroke:#181818;stroke-width:1.0;" width="10" x="275.5" y="140.9961"/><rect fill="#FFFFFF" height="202.6411" style="stroke:#181818;stroke-width:1.0;" width="10" x="416.5" y="169.9448"/><rect fill="#FFFFFF" height="144.7437" style="stroke:#181818;stroke-width:1.0;" width="10" x="541.5" y="198.8936"/><rect fill="#FFFFFF" height="86.8462" style="stroke:#181818;stroke-width:1.0;" width="10" x="642" y="227.8423"/><rect fill="#FFFFFF" height="28.9487" style="stroke:#181818;stroke-width:1.0;" width="10" x="734.5" y="256.791"/><line style="stroke:#181818;stroke-width:0.5;stroke-dasharray:5.0,5.0;" x1="32" x2="32" y1="81.0986" y2="448.4834"/><line style="stroke:#181818;stroke-width:0.5;stroke-dasharray:5.0,5.0;" x1="164" x2="164" y1="81.0986" y2="448.4834"/><line style="stroke:#181818;stroke-width:0.5;stroke-dasharray:5.0,5.0;" x1="280.5" x2="280.5" y1="81.0986" y2="448.4834"/><line style="stroke:#181818;stroke-width:0.5;stroke-dasharray:5.0,5.0;" x1="421.5" x2="421.5" y1="81.0986" y2="448.4834"/><line style="stroke:#181818;stroke-width:0.5;stroke-dasharray:5.0,5.0;" x1="546" x2="546" y1="81.0986" y2="448.4834"/><line style="stroke:#181818;stroke-width:0.5;stroke-dasharray:5.0,5.0;" x1="647" x2="647" y1="81.0986" y2="448.4834"/><line style="stroke:#181818;stroke-width:0.5;stroke-dasharray:5.0,5.0;" x1="739" x2="739" y1="81.0986" y2="448.4834"/><text fill="#000000" font-family="sans-serif" font-size="14" lengthAdjust="spacing" textLength="49" x="5" y="78.1318">Usuario</text><ellipse cx="32.5" cy="13.5" fill="#E2E2F0" rx="8" ry="8" style="stroke:#181818;stroke-width:0.5;"/><path d="M32.5,21.5 L32.5,48.5 M19.5,29.5 L45.5,29.5 M32.5,48.5 L19.5,63.5 M32.5,48.5 L45.5,63.5 " fill="none" style="stroke:#181818;stroke-width:0.5;"/><text fill="#000000" font-family="sans-serif" font-size="14" lengthAdjust="spacing" textLength="49" x="5" y="460.6152">Usuario</text><ellipse cx="32.5" cy="472.082" fill="#E2E2F0" rx="8" ry="8" style="stroke:#181818;stroke-width:0.5;"/><path d="M32.5,480.082 L32.5,507.082 M19.5,488.082 L45.5,488.082 M32.5,507.082 L19.5,522.082 M32.5,507.082 L45.5,522.082 " fill="none" style="stroke:#181818;stroke-width:0.5;"/><rect fill="#E2E2F0" height="30.0986" rx="2.5" ry="2.5" style="stroke:#181818;stroke-width:0.5;" width="71" x="129" y="50"/><text fill="#000000" font-family="sans-serif" font-size="14" lengthAdjust="spacing" textLength="57" x="136" y="70.1318">CLI Vista</text><rect fill="#E2E2F0" height="30.0986" rx="2.5" ry="2.5" style="stroke:#181818;stroke-width:0.5;" width="71" x="129" y="447.4834"/><text fill="#000000" font-family="sans-serif" font-size="14" lengthAdjust="spacing" textLength="57" x="136" y="467.6152">CLI Vista</text><rect fill="#E2E2F0" height="30.0986" rx="2.5" ry="2.5" style="stroke:#181818;stroke-width:0.5;" width="76" x="242.5" y="50"/><text fill="#000000" font-family="sans-serif" font-size="14" lengthAdjust="spacing" textLength="62" x="249.5" y="70.1318">API Client</text><rect fill="#E2E2F0" height="30.0986" rx="2.5" ry="2.5" style="stroke:#181818;stroke-width:0.5;" width="76" x="242.5" y="447.4834"/><text fill="#000000" font-family="sans-serif" font-size="14" lengthAdjust="spacing" textLength="62" x="249.5" y="467.6152">API Client</text><rect fill="#E2E2F0" height="46.1973" rx="2.5" ry="2.5" style="stroke:#181818;stroke-width:0.5;" width="76" x="383.5" y="33.9014"/><text fill="#000000" font-family="sans-serif" font-size="14" lengthAdjust="spacing" textLength="50" x="396.5" y="54.0332">FastAPI</text><text fill="#000000" font-family="sans-serif" font-size="14" lengthAdjust="spacing" textLength="62" x="390.5" y="70.1318">Controller</text><rect fill="#E2E2F0" height="46.1973" rx="2.5" ry="2.5" style="stroke:#181818;stroke-width:0.5;" width="76" x="383.5" y="447.4834"/><text fill="#000000" font-family="sans-serif" font-size="14" lengthAdjust="spacing" textLength="50" x="396.5" y="467.6152">FastAPI</text><text fill="#000000" font-family="sans-serif" font-size="14" lengthAdjust="spacing" textLength="62" x="390.5" y="483.7139">Controller</text><rect fill="#E2E2F0" height="46.1973" rx="2.5" ry="2.5" style="stroke:#181818;stroke-width:0.5;" width="99" x="497" y="33.9014"/><text fill="#000000" font-family="sans-serif" font-size="14" lengthAdjust="spacing" textLength="47" x="523" y="54.0332">Service</text><text fill="#000000" font-family="sans-serif" font-size="14" lengthAdjust="spacing" textLength="85" x="504" y="70.1318">(Controlador)</text><rect fill="#E2E2F0" height="46.1973" rx="2.5" ry="2.5" style="stroke:#181818;stroke-width:0.5;" width="99" x="497" y="447.4834"/><text fill="#000000" font-family="sans-serif" font-size="14" lengthAdjust="spacing" textLength="47" x="523" y="467.6152">Service</text><text fill="#000000" font-family="sans-serif" font-size="14" lengthAdjust="spacing" textLength="85" x="504" y="483.7139">(Controlador)</text><rect fill="#E2E2F0" height="46.1973" rx="2.5" ry="2.5" style="stroke:#181818;stroke-width:0.5;" width="82" x="606" y="33.9014"/><text fill="#000000" font-family="sans-serif" font-size="14" lengthAdjust="spacing" textLength="68" x="613" y="54.0332">Repository</text><text fill="#000000" font-family="sans-serif" font-size="14" lengthAdjust="spacing" textLength="57" x="618.5" y="70.1318">(Modelo)</text><rect fill="#E2E2F0" height="46.1973" rx="2.5" ry="2.5" style="stroke:#181818;stroke-width:0.5;" width="82" x="606" y="447.4834"/><text fill="#000000" font-family="sans-serif" font-size="14" lengthAdjust="spacing" textLength="68" x="613" y="467.6152">Repository</text><text fill="#000000" font-family="sans-serif" font-size="14" lengthAdjust="spacing" textLength="57" x="618.5" y="483.7139">(Modelo)</text><text fill="#000000" font-family="sans-serif" font-size="14" lengthAdjust="spacing" textLength="77" x="698" y="78.1318">PostgreSQL</text><path d="M721.5,29 C721.5,19 739.5,19 739.5,19 C739.5,19 757.5,19 757.5,29 L757.5,55 C757.5,65 739.5,65 739.5,65 C739.5,65 721.5,65 721.5,55 L721.5,29 " fill="#E2E2F0" style="stroke:#181818;stroke-width:1.5;"/><path d="M721.5,29 C721.5,39 739.5,39 739.5,39 C739.5,39 757.5,39 757.5,29 " fill="none" style="stroke:#181818;stroke-width:1.5;"/><text fill="#000000" font-family="sans-serif" font-size="14" lengthAdjust="spacing" textLength="77" x="698" y="460.6152">PostgreSQL</text><path d="M721.5,473.582 C721.5,463.582 739.5,463.582 739.5,463.582 C739.5,463.582 757.5,463.582 757.5,473.582 L757.5,499.582 C757.5,509.582 739.5,509.582 739.5,509.582 C739.5,509.582 721.5,509.582 721.5,499.582 L721.5,473.582 " fill="#E2E2F0" style="stroke:#181818;stroke-width:1.5;"/><path d="M721.5,473.582 C721.5,483.582 739.5,483.582 739.5,483.582 C739.5,483.582 757.5,483.582 757.5,473.582 " fill="none" style="stroke:#181818;stroke-width:1.5;"/><rect fill="#FFFFFF" height="318.436" style="stroke:#181818;stroke-width:1.0;" width="10" x="159.5" y="112.0474"/><rect fill="#FFFFFF" height="260.5386" style="stroke:#181818;stroke-width:1.0;" width="10" x="275.5" y="140.9961"/><rect fill="#FFFFFF" height="202.6411" style="stroke:#181818;stroke-width:1.0;" width="10" x="416.5" y="169.9448"/><rect fill="#FFFFFF" height="144.7437" style="stroke:#181818;stroke-width:1.0;" width="10" x="541.5" y="198.8936"/><rect fill="#FFFFFF" height="86.8462" style="stroke:#181818;stroke-width:1.0;" width="10" x="642" y="227.8423"/><rect fill="#FFFFFF" height="28.9487" style="stroke:#181818;stroke-width:1.0;" width="10" x="734.5" y="256.791"/><polygon fill="#181818" points="147.5,108.0474,157.5,112.0474,147.5,116.0474,151.5,112.0474" style="stroke:#181818;stroke-width:1.0;"/><line style="stroke:#181818;stroke-width:1.0;" x1="32.5" x2="153.5" y1="112.0474" y2="112.0474"/><text fill="#000000" font-family="sans-serif" font-size="13" lengthAdjust="spacing" textLength="27" x="82.5" y="107.2925">login</text><polygon fill="#181818" points="263.5,136.9961,273.5,140.9961,263.5,144.9961,267.5,140.9961" style="stroke:#181818;stroke-width:1.0;"/><line style="stroke:#181818;stroke-width:1.0;" x1="169.5" x2="269.5" y1="140.9961" y2="140.9961"/><text fill="#000000" font-family="sans-serif" font-size="13" lengthAdjust="spacing" textLength="71" x="187" y="136.2412">POST /login</text><polygon fill="#181818" points="404.5,165.9448,414.5,169.9448,404.5,173.9448,408.5,169.9448" style="stroke:#181818;stroke-width:1.0;"/><line style="stroke:#181818;stroke-width:1.0;" x1="285.5" x2="410.5" y1="169.9448" y2="169.9448"/><text fill="#000000" font-family="sans-serif" font-size="13" lengthAdjust="spacing" textLength="79" x="311.5" y="165.1899">authenticate()</text><polygon fill="#181818" points="529.5,194.8936,539.5,198.8936,529.5,202.8936,533.5,198.8936" style="stroke:#181818;stroke-width:1.0;"/><line style="stroke:#181818;stroke-width:1.0;" x1="426.5" x2="535.5" y1="198.8936" y2="198.8936"/><text fill="#000000" font-family="sans-serif" font-size="13" lengthAdjust="spacing" textLength="53" x="457.5" y="194.1387">validate()</text><polygon fill="#181818" points="630,223.8423,640,227.8423,630,231.8423,634,227.8423" style="stroke:#181818;stroke-width:1.0;"/><line style="stroke:#181818;stroke-width:1.0;" x1="551.5" x2="636" y1="227.8423" y2="227.8423"/><text fill="#000000" font-family="sans-serif" font-size="13" lengthAdjust="spacing" textLength="61" x="566.25" y="223.0874">find_user()</text><polygon fill="#181818" points="722.5,252.791,732.5,256.791,722.5,260.791,726.5,256.791" style="stroke:#181818;stroke-width:1.0;"/><line style="stroke:#181818;stroke-width:1.0;" x1="652" x2="728.5" y1="256.791" y2="256.791"/><text fill="#000000" font-family="sans-serif" font-size="13" lengthAdjust="spacing" textLength="51" x="667.75" y="252.0361">SELECT</text><polygon fill="#181818" points="663,281.7397,653,285.7397,663,289.7397,659,285.7397" style="stroke:#181818;stroke-width:1.0;"/><line style="stroke:#181818;stroke-width:1.0;stroke-dasharray:2.0,2.0;" x1="657" x2="738.5" y1="285.7397" y2="285.7397"/><text fill="#000000" font-family="sans-serif" font-size="13" lengthAdjust="spacing" textLength="54" x="668.75" y="280.9849">user data</text><polygon fill="#181818" points="562.5,310.6885,552.5,314.6885,562.5,318.6885,558.5,314.6885" style="stroke:#181818;stroke-width:1.0;"/><line style="stroke:#181818;stroke-width:1.0;stroke-dasharray:2.0,2.0;" x1="556.5" x2="646" y1="314.6885" y2="314.6885"/><text fill="#000000" font-family="sans-serif" font-size="13" lengthAdjust="spacing" textLength="25" x="586.75" y="309.9336">user</text><polygon fill="#181818" points="437.5,339.6372,427.5,343.6372,437.5,347.6372,433.5,343.6372" style="stroke:#181818;stroke-width:1.0;"/><line style="stroke:#181818;stroke-width:1.0;stroke-dasharray:2.0,2.0;" x1="431.5" x2="545.5" y1="343.6372" y2="343.6372"/><text fill="#000000" font-family="sans-serif" font-size="13" lengthAdjust="spacing" textLength="91" x="441" y="338.8823">validation result</text><polygon fill="#181818" points="296.5,368.5859,286.5,372.5859,296.5,376.5859,292.5,372.5859" style="stroke:#181818;stroke-width:1.0;"/><line style="stroke:#181818;stroke-width:1.0;stroke-dasharray:2.0,2.0;" x1="290.5" x2="420.5" y1="372.5859" y2="372.5859"/><text fill="#000000" font-family="sans-serif" font-size="13" lengthAdjust="spacing" textLength="107" x="300" y="367.8311">HTTP 200 + token</text><polygon fill="#181818" points="180.5,397.5347,170.5,401.5347,180.5,405.5347,176.5,401.5347" style="stroke:#181818;stroke-width:1.0;"/><line style="stroke:#181818;stroke-width:1.0;stroke-dasharray:2.0,2.0;" x1="174.5" x2="279.5" y1="401.5347" y2="401.5347"/><text fill="#000000" font-family="sans-serif" font-size="13" lengthAdjust="spacing" textLength="82" x="184" y="396.7798">response data</text><polygon fill="#181818" points="43.5,426.4834,33.5,430.4834,43.5,434.4834,39.5,430.4834" style="stroke:#181818;stroke-width:1.0;"/><line style="stroke:#181818;stroke-width:1.0;stroke-dasharray:2.0,2.0;" x1="37.5" x2="163.5" y1="430.4834" y2="430.4834"/><text fill="#000000" font-family="sans-serif" font-size="13" lengthAdjust="spacing" textLength="103" x="47" y="425.7285">&#10003; Sesi&#243;n iniciada</text><!--SRC=[NP91JiCm44NtFiMeR408WLXcWKJJ8f2AAAImgeI6P0YZ6hlOJYNEmPPRS0HkmacmapHneYnYPzwV-7-FtR3Qei5tUC5yKnfTgIBLKXiuk9g7HzYEiFHHaShfbgp5aYubbmfoKewC49WxBtgq5HhMmWiSvxn5vM2IBcxWYQt32Q05lnkMBvSta4hsVPfwlHmYLsYTnzOgrSePBIMPXkssGpuZi-ESrkgm9R3GvgYMjAKX_q1RRTaR-FIIMrsGr0tT5qI13b_G4aoMshhIK7Q_g9dPL8ZMDvnS17y9I5so2fdm3XtLdaM88THhVmaixx8Ld8x1nhnetZNUMKm0A_VcFtFkqSEZIDN78FfrKBTk4zYXv68asqSXsaKGz8OJU6LLF5UMJ2oA4X7zEaXdqmIo-MAUhdhQPpERmiceSUW98KzHK8mE6iQd3uAOZG_H7NuKLkkOjG93jf8kRj1PZ-EABkTwjLh2-TaP78FJ6rAnTf1sUq_xU_T_schbXsJihhlOC0IURWScWR_lBtyQoxy_2bZvYSHYAFIZymy0]--></g></svg>