<?xml version="1.0" encoding="us-ascii" standalone="no"?><svg xmlns="http://www.w3.org/2000/svg" xmlns:xlink="http://www.w3.org/1999/xlink" contentStyleType="text/css" height="782px" preserveAspectRatio="none" style="width:1486px;height:782px;background:#FFFFFF;" version="1.1" viewBox="0 0 1486 782" width="1486px" zoomAndPan="magnify"><defs/><g><text fill="#000000" font-family="sans-serif" font-size="14" font-weight="bold" lengthAdjust="spacing" textLength="432" x="528.75" y="28.1318">Diagrama de Secuencia - Iniciar Sesi&#243;n (Spring Boot + Angular)</text><rect fill="#FFFFFF" height="542.7773" style="stroke:#181818;stroke-width:1.0;" width="10" x="338" y="149.146"/><rect fill="#FFFFFF" height="469.8799" style="stroke:#181818;stroke-width:1.0;" width="10" x="587" y="178.0947"/><rect fill="#FFFFFF" height="411.9824" style="stroke:#181818;stroke-width:1.0;" width="10" x="815" y="207.0435"/><rect fill="#FFFFFF" height="86.8462" style="stroke:#181818;stroke-width:1.0;" width="10" x="1095" y="235.9922"/><rect fill="#FFFFFF" height="28.9487" style="stroke:#181818;stroke-width:1.0;" width="10" x="1234.5" y="417.6846"/><rect fill="#FFFFFF" height="28.9487" style="stroke:#181818;stroke-width:1.0;" width="10" x="1415" y="264.9409"/><rect fill="none" height="305.1362" style="stroke:#000000;stroke-width:1.5;" width="1303.5" x="10" y="379.7871"/><line style="stroke:#181818;stroke-width:0.5;stroke-dasharray:5.0,5.0;" x1="67" x2="67" y1="118.1973" y2="701.9233"/><line style="stroke:#181818;stroke-width:0.5;stroke-dasharray:5.0,5.0;" x1="342.5" x2="342.5" y1="118.1973" y2="701.9233"/><line style="stroke:#181818;stroke-width:0.5;stroke-dasharray:5.0,5.0;" x1="591.5" x2="591.5" y1="118.1973" y2="701.9233"/><line style="stroke:#181818;stroke-width:0.5;stroke-dasharray:5.0,5.0;" x1="820" x2="820" y1="118.1973" y2="701.9233"/><line style="stroke:#181818;stroke-width:0.5;stroke-dasharray:5.0,5.0;" x1="1099.5" x2="1099.5" y1="118.1973" y2="701.9233"/><line style="stroke:#181818;stroke-width:0.5;stroke-dasharray:5.0,5.0;" x1="1239.5" x2="1239.5" y1="118.1973" y2="701.9233"/><line style="stroke:#181818;stroke-width:0.5;stroke-dasharray:5.0,5.0;" x1="1419.5" x2="1419.5" y1="118.1973" y2="701.9233"/><text fill="#000000" font-family="sans-serif" font-size="14" lengthAdjust="spacing" textLength="88" x="20" y="115.2305">Administrador</text><ellipse cx="67" cy="50.5986" fill="#E2E2F0" rx="8" ry="8" style="stroke:#181818;stroke-width:0.5;"/><path d="M67,58.5986 L67,85.5986 M54,66.5986 L80,66.5986 M67,85.5986 L54,100.5986 M67,85.5986 L80,100.5986 " fill="none" style="stroke:#181818;stroke-width:0.5;"/><text fill="#000000" font-family="sans-serif" font-size="14" lengthAdjust="spacing" textLength="88" x="20" y="714.0552">Administrador</text><ellipse cx="67" cy="725.522" fill="#E2E2F0" rx="8" ry="8" style="stroke:#181818;stroke-width:0.5;"/><path d="M67,733.522 L67,760.522 M54,741.522 L80,741.522 M67,760.522 L54,775.522 M67,760.522 L80,775.522 " fill="none" style="stroke:#181818;stroke-width:0.5;"/><rect fill="#E2E2F0" height="30.0986" rx="2.5" ry="2.5" style="stroke:#181818;stroke-width:0.5;" width="135" x="275.5" y="87.0986"/><text fill="#000000" font-family="sans-serif" font-size="14" lengthAdjust="spacing" textLength="121" x="282.5" y="107.2305">Frontend (Angular)</text><rect fill="#E2E2F0" height="30.0986" rx="2.5" ry="2.5" style="stroke:#181818;stroke-width:0.5;" width="135" x="275.5" y="700.9233"/><text fill="#000000" font-family="sans-serif" font-size="14" lengthAdjust="spacing" textLength="121" x="282.5" y="721.0552">Frontend (Angular)</text><rect fill="#E2E2F0" height="30.0986" rx="2.5" ry="2.5" style="stroke:#181818;stroke-width:0.5;" width="105" x="539.5" y="87.0986"/><text fill="#000000" font-family="sans-serif" font-size="14" lengthAdjust="spacing" textLength="91" x="546.5" y="107.2305">AuthController</text><rect fill="#E2E2F0" height="30.0986" rx="2.5" ry="2.5" style="stroke:#181818;stroke-width:0.5;" width="105" x="539.5" y="700.9233"/><text fill="#000000" font-family="sans-serif" font-size="14" lengthAdjust="spacing" textLength="91" x="546.5" y="721.0552">AuthController</text><rect fill="#E2E2F0" height="30.0986" rx="2.5" ry="2.5" style="stroke:#181818;stroke-width:0.5;" width="90" x="775" y="87.0986"/><text fill="#000000" font-family="sans-serif" font-size="14" lengthAdjust="spacing" textLength="76" x="782" y="107.2305">AuthService</text><rect fill="#E2E2F0" height="30.0986" rx="2.5" ry="2.5" style="stroke:#181818;stroke-width:0.5;" width="90" x="775" y="700.9233"/><text fill="#000000" font-family="sans-serif" font-size="14" lengthAdjust="spacing" textLength="76" x="782" y="721.0552">AuthService</text><rect fill="#E2E2F0" height="30.0986" rx="2.5" ry="2.5" style="stroke:#181818;stroke-width:0.5;" width="131" x="1034.5" y="87.0986"/><text fill="#000000" font-family="sans-serif" font-size="14" lengthAdjust="spacing" textLength="117" x="1041.5" y="107.2305">UsuarioRepository</text><rect fill="#E2E2F0" height="30.0986" rx="2.5" ry="2.5" style="stroke:#181818;stroke-width:0.5;" width="131" x="1034.5" y="700.9233"/><text fill="#000000" font-family="sans-serif" font-size="14" lengthAdjust="spacing" textLength="117" x="1041.5" y="721.0552">UsuarioRepository</text><rect fill="#E2E2F0" height="30.0986" rx="2.5" ry="2.5" style="stroke:#181818;stroke-width:0.5;" width="128" x="1175.5" y="87.0986"/><text fill="#000000" font-family="sans-serif" font-size="14" lengthAdjust="spacing" textLength="114" x="1182.5" y="107.2305">JwtTokenProvider</text><rect fill="#E2E2F0" height="30.0986" rx="2.5" ry="2.5" style="stroke:#181818;stroke-width:0.5;" width="128" x="1175.5" y="700.9233"/><text fill="#000000" font-family="sans-serif" font-size="14" lengthAdjust="spacing" textLength="114" x="1182.5" y="721.0552">JwtTokenProvider</text><text fill="#000000" font-family="sans-serif" font-size="14" lengthAdjust="spacing" textLength="125" x="1354.5" y="115.2305">Base de Datos (H2)</text><path d="M1402,66.0986 C1402,56.0986 1420,56.0986 1420,56.0986 C1420,56.0986 1438,56.0986 1438,66.0986 L1438,92.0986 C1438,102.0986 1420,102.0986 1420,102.0986 C1420,102.0986 1402,102.0986 1402,92.0986 L1402,66.0986 " fill="#E2E2F0" style="stroke:#181818;stroke-width:1.5;"/><path d="M1402,66.0986 C1402,76.0986 1420,76.0986 1420,76.0986 C1420,76.0986 1438,76.0986 1438,66.0986 " fill="none" style="stroke:#181818;stroke-width:1.5;"/><text fill="#000000" font-family="sans-serif" font-size="14" lengthAdjust="spacing" textLength="125" x="1354.5" y="714.0552">Base de Datos (H2)</text><path d="M1402,727.022 C1402,717.022 1420,717.022 1420,717.022 C1420,717.022 1438,717.022 1438,727.022 L1438,753.022 C1438,763.022 1420,763.022 1420,763.022 C1420,763.022 1402,763.022 1402,753.022 L1402,727.022 " fill="#E2E2F0" style="stroke:#181818;stroke-width:1.5;"/><path d="M1402,727.022 C1402,737.022 1420,737.022 1420,737.022 C1420,737.022 1438,737.022 1438,727.022 " fill="none" style="stroke:#181818;stroke-width:1.5;"/><rect fill="#FFFFFF" height="542.7773" style="stroke:#181818;stroke-width:1.0;" width="10" x="338" y="149.146"/><rect fill="#FFFFFF" height="469.8799" style="stroke:#181818;stroke-width:1.0;" width="10" x="587" y="178.0947"/><rect fill="#FFFFFF" height="411.9824" style="stroke:#181818;stroke-width:1.0;" width="10" x="815" y="207.0435"/><rect fill="#FFFFFF" height="86.8462" style="stroke:#181818;stroke-width:1.0;" width="10" x="1095" y="235.9922"/><rect fill="#FFFFFF" height="28.9487" style="stroke:#181818;stroke-width:1.0;" width="10" x="1234.5" y="417.6846"/><rect fill="#FFFFFF" height="28.9487" style="stroke:#181818;stroke-width:1.0;" width="10" x="1415" y="264.9409"/><polygon fill="#181818" points="326,145.146,336,149.146,326,153.146,330,149.146" style="stroke:#181818;stroke-width:1.0;"/><line style="stroke:#181818;stroke-width:1.0;" x1="67" x2="332" y1="149.146" y2="149.146"/><text fill="#000000" font-family="sans-serif" font-size="13" lengthAdjust="spacing" textLength="252" x="74" y="144.3911">Ingresa credenciales (username, password)</text><polygon fill="#181818" points="575,174.0947,585,178.0947,575,182.0947,579,178.0947" style="stroke:#181818;stroke-width:1.0;"/><line style="stroke:#181818;stroke-width:1.0;" x1="348" x2="581" y1="178.0947" y2="178.0947"/><text fill="#000000" font-family="sans-serif" font-size="13" lengthAdjust="spacing" textLength="212" x="355" y="173.3398">POST /api/auth/login (LoginRequest)</text><polygon fill="#181818" points="803,203.0435,813,207.0435,803,211.0435,807,207.0435" style="stroke:#181818;stroke-width:1.0;"/><line style="stroke:#181818;stroke-width:1.0;" x1="597" x2="809" y1="207.0435" y2="207.0435"/><text fill="#000000" font-family="sans-serif" font-size="13" lengthAdjust="spacing" textLength="199" x="604" y="202.2886">authenticate(username, password)</text><polygon fill="#181818" points="1083,231.9922,1093,235.9922,1083,239.9922,1087,235.9922" style="stroke:#181818;stroke-width:1.0;"/><line style="stroke:#181818;stroke-width:1.0;" x1="825" x2="1089" y1="235.9922" y2="235.9922"/><text fill="#000000" font-family="sans-serif" font-size="13" lengthAdjust="spacing" textLength="161" x="832" y="231.2373">findByUsername(username)</text><polygon fill="#181818" points="1403,260.9409,1413,264.9409,1403,268.9409,1407,264.9409" style="stroke:#181818;stroke-width:1.0;"/><line style="stroke:#181818;stroke-width:1.0;" x1="1105" x2="1409" y1="264.9409" y2="264.9409"/><text fill="#000000" font-family="sans-serif" font-size="13" lengthAdjust="spacing" textLength="291" x="1112" y="260.186">SELECT * FROM usuarios WHERE username = ?</text><polygon fill="#181818" points="1116,289.8896,1106,293.8896,1116,297.8896,1112,293.8896" style="stroke:#181818;stroke-width:1.0;"/><line style="stroke:#181818;stroke-width:1.0;stroke-dasharray:2.0,2.0;" x1="1110" x2="1419" y1="293.8896" y2="293.8896"/><text fill="#000000" font-family="sans-serif" font-size="13" lengthAdjust="spacing" textLength="108" x="1122" y="289.1348">Optional&lt;Usuario&gt;</text><polygon fill="#181818" points="836,318.8384,826,322.8384,836,326.8384,832,322.8384" style="stroke:#181818;stroke-width:1.0;"/><line style="stroke:#181818;stroke-width:1.0;stroke-dasharray:2.0,2.0;" x1="830" x2="1099" y1="322.8384" y2="322.8384"/><text fill="#000000" font-family="sans-serif" font-size="13" lengthAdjust="spacing" textLength="108" x="842" y="318.0835">Optional&lt;Usuario&gt;</text><line style="stroke:#181818;stroke-width:1.0;" x1="825" x2="867" y1="351.7871" y2="351.7871"/><line style="stroke:#181818;stroke-width:1.0;" x1="867" x2="867" y1="351.7871" y2="364.7871"/><line style="stroke:#181818;stroke-width:1.0;" x1="826" x2="867" y1="364.7871" y2="364.7871"/><polygon fill="#181818" points="836,360.7871,826,364.7871,836,368.7871,832,364.7871" style="stroke:#181818;stroke-width:1.0;"/><text fill="#000000" font-family="sans-serif" font-size="13" lengthAdjust="spacing" textLength="256" x="832" y="347.0322">passwordEncoder.matches(password, hash)</text><path d="M10,379.7871 L70,379.7871 L70,386.7358 L60,396.7358 L10,396.7358 L10,379.7871 " fill="#EEEEEE" style="stroke:#000000;stroke-width:1.5;"/><rect fill="none" height="305.1362" style="stroke:#000000;stroke-width:1.5;" width="1303.5" x="10" y="379.7871"/><text fill="#000000" font-family="sans-serif" font-size="13" font-weight="bold" lengthAdjust="spacing" textLength="15" x="25" y="392.981">alt</text><text fill="#000000" font-family="sans-serif" font-size="11" font-weight="bold" lengthAdjust="spacing" textLength="117" x="85" y="392.105">[Credenciales V&#225;lidas]</text><polygon fill="#181818" points="1222.5,413.6846,1232.5,417.6846,1222.5,421.6846,1226.5,417.6846" style="stroke:#181818;stroke-width:1.0;"/><line style="stroke:#181818;stroke-width:1.0;" x1="825" x2="1228.5" y1="417.6846" y2="417.6846"/><text fill="#000000" font-family="sans-serif" font-size="13" lengthAdjust="spacing" textLength="151" x="832" y="412.9297">generateToken(username)</text><polygon fill="#181818" points="836,442.6333,826,446.6333,836,450.6333,832,446.6333" style="stroke:#181818;stroke-width:1.0;"/><line style="stroke:#181818;stroke-width:1.0;stroke-dasharray:2.0,2.0;" x1="830" x2="1238.5" y1="446.6333" y2="446.6333"/><text fill="#000000" font-family="sans-serif" font-size="13" lengthAdjust="spacing" textLength="70" x="842" y="441.8784">String token</text><polygon fill="#181818" points="608,471.582,598,475.582,608,479.582,604,475.582" style="stroke:#181818;stroke-width:1.0;"/><line style="stroke:#181818;stroke-width:1.0;stroke-dasharray:2.0,2.0;" x1="602" x2="814" y1="475.582" y2="475.582"/><text fill="#000000" font-family="sans-serif" font-size="13" lengthAdjust="spacing" textLength="174" x="614" y="470.8271">JwtResponse(token, "Bearer")</text><polygon fill="#181818" points="359,500.5308,349,504.5308,359,508.5308,355,504.5308" style="stroke:#181818;stroke-width:1.0;"/><line style="stroke:#181818;stroke-width:1.0;stroke-dasharray:2.0,2.0;" x1="353" x2="586" y1="504.5308" y2="504.5308"/><text fill="#000000" font-family="sans-serif" font-size="13" lengthAdjust="spacing" textLength="134" x="365" y="499.7759">200 OK (JwtResponse)</text><line style="stroke:#181818;stroke-width:1.0;" x1="348" x2="390" y1="533.4795" y2="533.4795"/><line style="stroke:#181818;stroke-width:1.0;" x1="390" x2="390" y1="533.4795" y2="546.4795"/><line style="stroke:#181818;stroke-width:1.0;" x1="349" x2="390" y1="546.4795" y2="546.4795"/><polygon fill="#181818" points="359,542.4795,349,546.4795,359,550.4795,355,546.4795" style="stroke:#181818;stroke-width:1.0;"/><text fill="#000000" font-family="sans-serif" font-size="13" lengthAdjust="spacing" textLength="225" x="355" y="528.7246">Guardar Token (LocalStorage/Session)</text><polygon fill="#181818" points="78,571.4282,68,575.4282,78,579.4282,74,575.4282" style="stroke:#181818;stroke-width:1.0;"/><line style="stroke:#181818;stroke-width:1.0;stroke-dasharray:2.0,2.0;" x1="72" x2="337" y1="575.4282" y2="575.4282"/><text fill="#000000" font-family="sans-serif" font-size="13" lengthAdjust="spacing" textLength="124" x="84" y="570.6733">Redirigir a Dashboard</text><line style="stroke:#000000;stroke-width:1.0;stroke-dasharray:2.0,2.0;" x1="10" x2="1313.5" y1="584.4282" y2="584.4282"/><text fill="#000000" font-family="sans-serif" font-size="11" font-weight="bold" lengthAdjust="spacing" textLength="126" x="15" y="594.7461">[Credenciales Inv&#225;lidas]</text><polygon fill="#181818" points="608,615.0259,598,619.0259,608,623.0259,604,619.0259" style="stroke:#181818;stroke-width:1.0;"/><line style="stroke:#181818;stroke-width:1.0;stroke-dasharray:2.0,2.0;" x1="602" x2="819" y1="619.0259" y2="619.0259"/><text fill="#000000" font-family="sans-serif" font-size="13" lengthAdjust="spacing" textLength="181" x="614" y="614.271">throw BadCredentialsException</text><polygon fill="#181818" points="359,643.9746,349,647.9746,359,651.9746,355,647.9746" style="stroke:#181818;stroke-width:1.0;"/><line style="stroke:#181818;stroke-width:1.0;stroke-dasharray:2.0,2.0;" x1="353" x2="591" y1="647.9746" y2="647.9746"/><text fill="#000000" font-family="sans-serif" font-size="13" lengthAdjust="spacing" textLength="101" x="365" y="643.2197">401 Unauthorized</text><polygon fill="#181818" points="78,672.9233,68,676.9233,78,680.9233,74,676.9233" style="stroke:#181818;stroke-width:1.0;"/><line style="stroke:#181818;stroke-width:1.0;stroke-dasharray:2.0,2.0;" x1="72" x2="337" y1="676.9233" y2="676.9233"/><text fill="#000000" font-family="sans-serif" font-size="13" lengthAdjust="spacing" textLength="220" x="84" y="672.1685">Mostrar Error "Credenciales inv&#225;lidas"</text><!--SRC=[VLJ1SjCm4BtxAtPoSg4bfSF90sNgng4jxQGJf_IyjHP7WoCPIKufVyCty0dzCLQodJW1caDiQzxRrNjwAoTTHJ2HM1fS8GY2d8g6L24HZk1IINunl6Rbysy5SLuRgKf8jNRm6ivKsLHe3g882wSDZCx4IYffdK6XpGZGGbY9QZIEAzMe78ocHYj7Ia3SymDockt2pXgtF6UaqLL5RR7jvz_GdCnQ5XHmtVikwCusQAIUKwsjvDq-1QZ_tCLTFRg5_aRgrkYr55tdg_j59D3X0rg2KUh_sQe9EcqXlZXf5KpIA0fwuUYKvIHiNsd88XI6HB2q8eOtbep25Hr2ZTO-QYCEl7zoZOwy2zFCyxTQ4xYTvGiOOot7o4h7bIwvHtpj7tFwtf1rWme3axQllcBdIWA-22bMpF2NTzCRsJrz5MzO0b-b4kdJNSVT51bGWx7-pvCcQG9vTfsTB-0LJEUp6sZQqx1mVv7DC-WBm0VukAt1XavIEDfqdTLEQeNL- -uiJoD1Gt3RRYZrHKROua3QXjKxaQb2SmBUhD0LIx9nltu8IxHB5bivE1-UxPVdNvKKQ2FWtw0onoU1aXGPxXlIDR3COpTxya7p2_pSLPAxC7dEamDY8AGdRJhkvOSZFITRQsKf3WKEESE4XiFTjXy6fSlkoV4np3v3FE2ss3QU7lA9BHLyEmH1Fey5LZbF5fOqvXl3ilDR2dF2R2Hikv16bj80yWJPvOFcCX5LF5CxPbwgzJ_jt1FdbaO_GegY9Jics-n7GU7azvtg0_qVqU-EtyATylEXZVn9Ofy-cAs_TTreV_4Po8pnT-6E5hdHCehuwXkca2V-3m00]--></g></svg>