<?xml version="1.0" encoding="us-ascii" standalone="no"?><svg xmlns="http://www.w3.org/2000/svg" xmlns:xlink="http://www.w3.org/1999/xlink" contentStyleType="text/css" height="442px" preserveAspectRatio="none" style="width:1667px;height:442px;background:#FFFFFF;" version="1.1" viewBox="0 0 1667 442" width="1667px" zoomAndPan="magnify"><defs/><g><!--cluster openClassrooms--><g id="cluster_openClassrooms"><path d="M163,6.602 L289,6.602 A3.75,3.75 0 0 1 291.5,9.102 L298.5,31.6699 L722,31.6699 A2.5,2.5 0 0 1 724.5,34.1699 L724.5,433.102 A2.5,2.5 0 0 1 722,435.602 L163,435.602 A2.5,2.5 0 0 1 160.5,433.102 L160.5,9.102 A2.5,2.5 0 0 1 163,6.602 " fill="none" style="stroke:#000000;stroke-width:1.5;"/><line style="stroke:#000000;stroke-width:1.5;" x1="160.5" x2="298.5" y1="31.6699" y2="31.6699"/><text fill="#000000" font-family="sans-serif" font-size="14" font-weight="bold" lengthAdjust="spacing" textLength="125" x="164.5" y="23.5679">openClassrooms()</text></g><!--entity OpenClassroomsView--><g id="elem_OpenClassroomsView"><rect fill="#629EF9" height="39.0679" rx="2.5" ry="2.5" style="stroke:#181818;stroke-width:0.5;" width="165" x="543" y="44.602"/><text fill="#000000" font-family="sans-serif" font-size="14" lengthAdjust="spacing" textLength="145" x="553" y="69.5679">OpenClassroomsView</text></g><!--entity ClassroomsController--><g id="elem_ClassroomsController"><rect fill="#B5BD68" height="39.0679" rx="2.5" ry="2.5" style="stroke:#181818;stroke-width:0.5;" width="164" x="248.5" y="162.602"/><text fill="#000000" font-family="sans-serif" font-size="14" lengthAdjust="spacing" textLength="144" x="258.5" y="187.5679">ClassroomsController</text></g><!--entity ClassroomRepository--><g id="elem_ClassroomRepository"><rect fill="#F2AC4E" height="39.0679" rx="2.5" ry="2.5" style="stroke:#181818;stroke-width:0.5;" width="161" x="261" y="280.602"/><text fill="#000000" font-family="sans-serif" font-size="14" lengthAdjust="spacing" textLength="141" x="271" y="305.5679">ClassroomRepository</text></g><!--entity Classroom--><g id="elem_Classroom"><rect fill="#F2AC4E" height="39.0679" rx="2.5" ry="2.5" style="stroke:#181818;stroke-width:0.5;" width="90" x="296.5" y="380.602"/><text fill="#000000" font-family="sans-serif" font-size="14" lengthAdjust="spacing" textLength="70" x="306.5" y="405.5679">Classroom</text></g><!--entity SystemAvailable--><g id="elem_SystemAvailable"><rect fill="#CDEBA5" height="39.0679" rx="2.5" ry="2.5" style="stroke:#181818;stroke-width:0.5;" width="137" x="7" y="44.602"/><text fill="#000000" font-family="sans-serif" font-size="14" lengthAdjust="spacing" textLength="117" x="17" y="69.5679">:System Available</text></g><!--entity SystemAvailableSalida--><g id="elem_SystemAvailableSalida"><rect fill="#CDEBA5" height="39.0679" rx="2.5" ry="2.5" style="stroke:#181818;stroke-width:0.5;" width="137" x="741" y="162.602"/><text fill="#000000" font-family="sans-serif" font-size="14" lengthAdjust="spacing" textLength="117" x="751" y="187.5679">:System Available</text></g><!--entity CreateClassroom--><g id="elem_CreateClassroom"><rect fill="#CDEBA5" height="39.0679" rx="2.5" ry="2.5" style="stroke:#181818;stroke-width:0.5;" width="232" x="913.5" y="162.602"/><text fill="#000000" font-family="sans-serif" font-size="14" lengthAdjust="spacing" textLength="212" x="923.5" y="187.5679">:Collaboration CreateClassroom</text></g><!--entity EditClassroom--><g id="elem_EditClassroom"><rect fill="#CDEBA5" height="39.0679" rx="2.5" ry="2.5" style="stroke:#181818;stroke-width:0.5;" width="214" x="1180.5" y="162.602"/><text fill="#000000" font-family="sans-serif" font-size="14" lengthAdjust="spacing" textLength="194" x="1190.5" y="187.5679">:Collaboration EditClassroom</text></g><!--entity DeleteClassroom--><g id="elem_DeleteClassroom"><rect fill="#CDEBA5" height="39.0679" rx="2.5" ry="2.5" style="stroke:#181818;stroke-width:0.5;" width="231" x="1430" y="162.602"/><text fill="#000000" font-family="sans-serif" font-size="14" lengthAdjust="spacing" textLength="211" x="1440" y="187.5679">:Collaboration DeleteClassroom</text></g><!--link SystemAvailable to OpenClassroomsView--><g id="link_SystemAvailable_OpenClassroomsView"><path d="M144.05,64.102 C245.12,64.102 427.88,64.102 536.6,64.102 " fill="none" id="SystemAvailable-to-OpenClassroomsView" style="stroke:#181818;stroke-width:1.0;"/><polygon fill="#181818" points="542.6,64.102,533.6,60.102,537.6,64.102,533.6,68.102,542.6,64.102" style="stroke:#181818;stroke-width:1.0;"/><text fill="#000000" font-family="sans-serif" font-size="13" lengthAdjust="spacing" textLength="108" x="289.5" y="56.999">openClassrooms()</text></g><!--link OpenClassroomsView to ClassroomsController--><g id="link_OpenClassroomsView_ClassroomsController"><path d="M542.62,74.742 C421.01,88.882 208.5,113.602 208.5,113.602 C208.5,113.602 208.5,132.602 208.5,132.602 C208.5,132.602 243.7047,146.5948 278.1047,160.2748 " fill="none" id="OpenClassroomsView-to-ClassroomsController" style="stroke:#181818;stroke-width:1.0;"/><polygon fill="#181818" points="283.68,162.492,276.7951,155.4494,279.0339,160.6443,273.8389,162.8831,283.68,162.492" style="stroke:#181818;stroke-width:1.0;"/><text fill="#000000" font-family="sans-serif" font-size="13" lengthAdjust="spacing" textLength="201" x="209.5" y="128.499">listClassrooms() : List&lt;Classroom&gt;</text></g><!--link OpenClassroomsView to ClassroomsController--><g id="link_OpenClassroomsView_ClassroomsController"><path d="M559.88,83.712 C511.65,97.392 454.5,113.602 454.5,113.602 C454.5,113.602 406.69,139.6337 369.98,159.6137 " fill="none" id="OpenClassroomsView-to-ClassroomsController-1" style="stroke:#181818;stroke-width:1.0;"/><polygon fill="#181818" points="364.71,162.482,374.5272,161.6929,369.1017,160.0917,370.7028,154.6662,364.71,162.482" style="stroke:#181818;stroke-width:1.0;"/><text fill="#000000" font-family="sans-serif" font-size="13" lengthAdjust="spacing" textLength="252" x="455.5" y="128.499">filterClassrooms(criteria) : List&lt;Classroom&gt;</text></g><!--link ClassroomsController to ClassroomRepository--><g id="link_ClassroomsController_ClassroomRepository"><path d="M292.51,201.712 C264.59,215.392 231.5,231.602 231.5,231.602 C231.5,231.602 231.5,250.602 231.5,250.602 C231.5,250.602 262.7801,264.3909 293.8001,278.0709 " fill="none" id="ClassroomsController-to-ClassroomRepository" style="stroke:#181818;stroke-width:1.0;"/><polygon fill="#181818" points="299.29,280.492,292.6693,273.2005,294.7151,278.4744,289.4412,280.5203,299.29,280.492" style="stroke:#181818;stroke-width:1.0;"/><text fill="#000000" font-family="sans-serif" font-size="13" lengthAdjust="spacing" textLength="149" x="232.5" y="246.499">getAll() : List&lt;Classroom&gt;</text></g><!--link ClassroomsController to ClassroomRepository--><g id="link_ClassroomsController_ClassroomRepository"><path d="M351.99,201.712 C367.78,215.392 386.5,231.602 386.5,231.602 C386.5,231.602 386.5,250.602 386.5,250.602 C386.5,250.602 375.5405,262.4132 362.8505,276.0932 " fill="none" id="ClassroomsController-to-ClassroomRepository-1" style="stroke:#181818;stroke-width:1.0;"/><polygon fill="#181818" points="358.77,280.492,367.8233,276.6141,362.1704,276.8263,361.9582,271.1734,358.77,280.492" style="stroke:#181818;stroke-width:1.0;"/><text fill="#000000" font-family="sans-serif" font-size="13" lengthAdjust="spacing" textLength="237" x="387.5" y="246.499">findByCriteria(criteria) : List&lt;Classroom&gt;</text></g><!--link ClassroomRepository to Classroom--><g id="link_ClassroomRepository_Classroom"><path d="M341.5,320.002 C341.5,337.462 341.5,363.262 341.5,380.592 " fill="none" id="ClassroomRepository-Classroom" style="stroke:#181818;stroke-width:1.0;"/></g><!--link OpenClassroomsView to SystemAvailableSalida--><g id="link_OpenClassroomsView_SystemAvailableSalida"><path d="M660.42,83.712 C686.09,97.392 716.5,113.602 716.5,113.602 C716.5,113.602 751.2253,138.7961 778.7353,158.7761 " fill="none" id="OpenClassroomsView-to-SystemAvailableSalida" style="stroke:#181818;stroke-width:1.0;stroke-dasharray:7.0,7.0;"/><polygon fill="#181818" points="783.59,162.302,778.6585,153.7767,779.5444,159.3637,773.9574,160.2496,783.59,162.302" style="stroke:#181818;stroke-width:1.0;"/><text fill="#000000" font-family="sans-serif" font-size="13" lengthAdjust="spacing" textLength="145" x="741.5" y="128.499">completeManagement()</text></g><!--link OpenClassroomsView to CreateClassroom--><g id="link_OpenClassroomsView_CreateClassroom"><path d="M708.34,79.982 C787.71,94.242 895.5,113.602 895.5,113.602 C895.5,113.602 947.5116,139.8025 987.1716,159.7825 " fill="none" id="OpenClassroomsView-to-CreateClassroom" style="stroke:#181818;stroke-width:1.0;stroke-dasharray:7.0,7.0;"/><polygon fill="#181818" points="992.53,162.482,986.292,154.8605,988.0646,160.2324,982.6927,162.005,992.53,162.482" style="stroke:#181818;stroke-width:1.0;"/><text fill="#000000" font-family="sans-serif" font-size="13" lengthAdjust="spacing" textLength="108" x="931.5" y="128.499">createClassroom()</text></g><!--link OpenClassroomsView to EditClassroom--><g id="link_OpenClassroomsView_EditClassroom"><path d="M708.06,74.572 C831.16,88.682 1048.5,113.602 1048.5,113.602 C1048.5,113.602 1145.346,140.9508 1216.106,160.9408 " fill="none" id="OpenClassroomsView-to-EditClassroom" style="stroke:#181818;stroke-width:1.0;stroke-dasharray:7.0,7.0;"/><polygon fill="#181818" points="1221.88,162.572,1214.3064,156.2759,1217.0683,161.2127,1212.1315,163.9745,1221.88,162.572" style="stroke:#181818;stroke-width:1.0;"/><text fill="#000000" font-family="sans-serif" font-size="13" lengthAdjust="spacing" textLength="94" x="1113.5" y="128.499">editClassroom()</text></g><!--link OpenClassroomsView to DeleteClassroom--><g id="link_OpenClassroomsView_DeleteClassroom"><path d="M708.3,71.892 C870.95,85.242 1216.5,113.602 1216.5,113.602 C1216.5,113.602 1351.8925,141.3756 1449.2825,161.3656 " fill="none" id="OpenClassroomsView-to-DeleteClassroom" style="stroke:#181818;stroke-width:1.0;stroke-dasharray:7.0,7.0;"/><polygon fill="#181818" points="1455.16,162.572,1447.1481,156.8441,1450.2621,161.5667,1445.5395,164.6807,1455.16,162.572" style="stroke:#181818;stroke-width:1.0;"/><text fill="#000000" font-family="sans-serif" font-size="13" lengthAdjust="spacing" textLength="108" x="1305.5" y="128.499">deleteClassroom()</text></g><!--SRC=[hLD1IyCm6BtdLtpKYnwwmt13WmowhZifWWFlNzjl8onDIXAK8lvtCvMrZQqROczvlFVwqlTgzqBLQB02AHIvfYQejMmE1yOC5GxLJX9SfAjicSmWufl6EgeWUK4XCPSK0Lhu0eyOgx7Ouuv0rwHIYTOQhIjxO4PzwF8gWZS6_kcyQpwzpTQtyDXZFWjw3OdvB2_dDz2IKgsSqLAI2QdhQP9UPotrYMfjXTEcESLaxt__41kKeiH1UUfZOguDEg4Lf8RGqV6Tdru1TePBLWhNz-WXPpYiI5AO8y0O2ou9iOaN0srn2Bjcx2SBujAhXohaVfBMTVN0uTv3TqTimTYG4kAkPLirXnsvHCeJJgt06tM6C9X-DFnMI4Uc4xymmWC2_-4QMw7APPD-6_xkF11wCbaCBvL3eQlwKFS3Aly3LwIShst48XYe5_U1SMLlbXoeUnnN1KFaKFO1h_m0]--></g></svg>