<?xml version="1.0" encoding="us-ascii" standalone="no"?><svg xmlns="http://www.w3.org/2000/svg" xmlns:xlink="http://www.w3.org/1999/xlink" contentStyleType="text/css" height="547px" preserveAspectRatio="none" style="width:881px;height:547px;background:#FFFFFF;" version="1.1" viewBox="0 0 881 547" width="881px" zoomAndPan="magnify"><defs/><g><!--cluster editBuilding--><g id="cluster_editBuilding"><path d="M8.5,111 L103.5,111 A3.75,3.75 0 0 1 106,113.5 L113,136.0679 L637.5,136.0679 A2.5,2.5 0 0 1 640,138.5679 L640,537.5 A2.5,2.5 0 0 1 637.5,540 L8.5,540 A2.5,2.5 0 0 1 6,537.5 L6,113.5 A2.5,2.5 0 0 1 8.5,111 " fill="none" style="stroke:#000000;stroke-width:1.5;"/><line style="stroke:#000000;stroke-width:1.5;" x1="6" x2="113" y1="136.0679" y2="136.0679"/><text fill="#000000" font-family="sans-serif" font-size="14" font-weight="bold" lengthAdjust="spacing" textLength="94" x="10" y="127.9659">editBuilding()</text></g><!--entity EditBuildingView--><g id="elem_EditBuildingView"><rect fill="#629EF9" height="39.0679" rx="2.5" ry="2.5" style="stroke:#181818;stroke-width:0.5;" width="134" x="296" y="149"/><text fill="#000000" font-family="sans-serif" font-size="14" lengthAdjust="spacing" textLength="114" x="306" y="173.9659">EditBuildingView</text></g><!--entity BuildingController--><g id="elem_BuildingController"><rect fill="#B5BD68" height="39.0679" rx="2.5" ry="2.5" style="stroke:#181818;stroke-width:0.5;" width="144" x="111" y="267"/><text fill="#000000" font-family="sans-serif" font-size="14" lengthAdjust="spacing" textLength="124" x="121" y="291.9659">BuildingController</text></g><!--entity BuildingRepository--><g id="elem_BuildingRepository"><rect fill="#F2AC4E" height="39.0679" rx="2.5" ry="2.5" style="stroke:#181818;stroke-width:0.5;" width="148" x="120" y="385"/><text fill="#000000" font-family="sans-serif" font-size="14" lengthAdjust="spacing" textLength="128" x="130" y="409.9659">BuildingRepository</text></g><!--entity Building--><g id="elem_Building"><rect fill="#F2AC4E" height="39.0679" rx="2.5" ry="2.5" style="stroke:#181818;stroke-width:0.5;" width="77" x="155.5" y="485"/><text fill="#000000" font-family="sans-serif" font-size="14" lengthAdjust="spacing" textLength="57" x="165.5" y="509.9659">Building</text></g><!--entity BuildingsOpen--><g id="elem_BuildingsOpen"><rect fill="#CDEBA5" height="39.0679" rx="2.5" ry="2.5" style="stroke:#181818;stroke-width:0.5;" width="129" x="115.5" y="7"/><text fill="#000000" font-family="sans-serif" font-size="14" lengthAdjust="spacing" textLength="109" x="125.5" y="31.9659">:Buildings Open</text></g><!--entity BuildingOpen--><g id="elem_BuildingOpen"><rect fill="#CDEBA5" height="39.0679" rx="2.5" ry="2.5" style="stroke:#181818;stroke-width:0.5;" width="122" x="302" y="7"/><text fill="#000000" font-family="sans-serif" font-size="14" lengthAdjust="spacing" textLength="102" x="312" y="31.9659">:Building Open</text></g><!--entity CreateBuilding--><g id="elem_CreateBuilding"><rect fill="#CDEBA5" height="39.0679" rx="2.5" ry="2.5" style="stroke:#181818;stroke-width:0.5;" width="219" x="459.5" y="7"/><text fill="#000000" font-family="sans-serif" font-size="14" lengthAdjust="spacing" textLength="199" x="469.5" y="31.9659">:Collaboration CreateBuilding</text></g><!--entity OpenBuildings--><g id="elem_OpenBuildings"><rect fill="#CDEBA5" height="39.0679" rx="2.5" ry="2.5" style="stroke:#181818;stroke-width:0.5;" width="219" x="656.5" y="267"/><text fill="#000000" font-family="sans-serif" font-size="14" lengthAdjust="spacing" textLength="199" x="666.5" y="291.9659">:Collaboration OpenBuildings</text></g><!--link BuildingsOpen to EditBuildingView--><g id="link_BuildingsOpen_EditBuildingView"><path d="M188.91,46.3 C198.38,66.28 212,95 212,95 C212,95 273.9611,124.7531 318.7011,146.2331 " fill="none" id="BuildingsOpen-to-EditBuildingView" style="stroke:#181818;stroke-width:1.0;"/><polygon fill="#181818" points="324.11,148.83,317.7279,141.3288,319.6026,146.666,314.2654,148.5407,324.11,148.83" style="stroke:#181818;stroke-width:1.0;"/><text fill="#000000" font-family="sans-serif" font-size="13" lengthAdjust="spacing" textLength="141" x="213" y="90.897">editBuilding(buildingId)</text></g><!--link BuildingOpen to EditBuildingView--><g id="link_BuildingOpen_EditBuildingView"><path d="M363,46.09 C363,72.87 363,116.01 363,142.83 " fill="none" id="BuildingOpen-to-EditBuildingView" style="stroke:#181818;stroke-width:1.0;"/><polygon fill="#181818" points="363,148.83,367,139.83,363,143.83,359,139.83,363,148.83" style="stroke:#181818;stroke-width:1.0;"/><text fill="#000000" font-family="sans-serif" font-size="13" lengthAdjust="spacing" textLength="141" x="364" y="90.897">editBuilding(buildingId)</text></g><!--link CreateBuilding to EditBuildingView--><g id="link_CreateBuilding_EditBuildingView"><path d="M553.68,46.3 C537.41,66.28 514,95 514,95 C514,95 452.0389,124.7531 407.2989,146.2331 " fill="none" id="CreateBuilding-to-EditBuildingView" style="stroke:#181818;stroke-width:1.0;"/><polygon fill="#181818" points="401.89,148.83,411.7346,148.5407,406.3974,146.666,408.2721,141.3288,401.89,148.83" style="stroke:#181818;stroke-width:1.0;"/><text fill="#000000" font-family="sans-serif" font-size="13" lengthAdjust="spacing" textLength="154" x="529" y="90.897">editBuilding(newBuilding)</text></g><!--link EditBuildingView to BuildingController--><g id="link_EditBuildingView_BuildingController"><path d="M295.95,180.02 C205.07,194.29 54,218 54,218 C54,218 54,237 54,237 C54,237 91.5041,251.0977 127.8741,264.7777 " fill="none" id="EditBuildingView-to-BuildingController" style="stroke:#181818;stroke-width:1.0;"/><polygon fill="#181818" points="133.49,266.89,126.4744,259.9776,128.8101,265.1297,123.658,267.4654,133.49,266.89" style="stroke:#181818;stroke-width:1.0;"/><text fill="#000000" font-family="sans-serif" font-size="13" lengthAdjust="spacing" textLength="264" x="55" y="232.897">loadBuildingForEditing(buildingId) : Building</text></g><!--link EditBuildingView to BuildingController--><g id="link_EditBuildingView_BuildingController"><path d="M352.14,188.3 C340.6,208.28 324,237 324,237 C324,237 282.5436,251.2579 242.7836,264.9379 " fill="none" id="EditBuildingView-to-BuildingController-1" style="stroke:#181818;stroke-width:1.0;"/><polygon fill="#181818" points="237.11,266.89,246.9217,267.7443,241.838,265.2633,244.319,260.1795,237.11,266.89" style="stroke:#181818;stroke-width:1.0;"/><text fill="#000000" font-family="sans-serif" font-size="13" lengthAdjust="spacing" textLength="259" x="336" y="232.897">modifyFields(buildingId, changes) : boolean</text></g><!--link BuildingController to BuildingRepository--><g id="link_BuildingController_BuildingRepository"><path d="M140.79,306.11 C109.77,319.79 73,336 73,336 C73,336 73,355 73,355 C73,355 107.8709,368.9772 141.9909,382.6572 " fill="none" id="BuildingController-to-BuildingRepository" style="stroke:#181818;stroke-width:1.0;"/><polygon fill="#181818" points="147.56,384.89,140.695,377.828,142.9191,383.0293,137.7179,385.2534,147.56,384.89" style="stroke:#181818;stroke-width:1.0;"/><text fill="#000000" font-family="sans-serif" font-size="13" lengthAdjust="spacing" textLength="174" x="74" y="350.897">getById(buildingId) : Building</text></g><!--link BuildingController to BuildingRepository--><g id="link_BuildingController_BuildingRepository"><path d="M209.86,306.11 C229.6,319.79 253,336 253,336 C253,336 253,355 253,355 C253,355 237.9148,367.3997 221.2748,381.0797 " fill="none" id="BuildingController-to-BuildingRepository-1" style="stroke:#181818;stroke-width:1.0;"/><polygon fill="#181818" points="216.64,384.89,226.1324,382.2644,220.5023,381.7147,221.052,376.0846,216.64,384.89" style="stroke:#181818;stroke-width:1.0;"/><text fill="#000000" font-family="sans-serif" font-size="13" lengthAdjust="spacing" textLength="158" x="254" y="350.897">update(building) : boolean</text></g><!--link BuildingRepository to Building--><g id="link_BuildingRepository_Building"><path d="M194,424.4 C194,441.86 194,467.66 194,484.99 " fill="none" id="BuildingRepository-Building" style="stroke:#181818;stroke-width:1.0;"/></g><!--link EditBuildingView to OpenBuildings--><g id="link_EditBuildingView_OpenBuildings"><path d="M430.13,183.01 C501.44,197.36 604,218 604,218 C604,218 667.8116,244.5922 715.7616,264.5722 " fill="none" id="EditBuildingView-to-OpenBuildings" style="stroke:#181818;stroke-width:1.0;stroke-dasharray:7.0,7.0;"/><polygon fill="#181818" points="721.3,266.88,714.5309,259.7261,716.6846,264.9569,711.4538,267.1106,721.3,266.88" style="stroke:#181818;stroke-width:1.0;"/><text fill="#000000" font-family="sans-serif" font-size="13" lengthAdjust="spacing" textLength="154" x="648" y="232.897">&#171;include&#187; openBuildings()</text></g><!--SRC=[bPDVQy8m5CNVyoaktOk5wODCcKKAshNWqs0FUq-RkouOav16f8nzzwLbhVqpdVOflJddbvDxIR7dKbD33o2uH5jg1Ar4MVqGOZ2pLEO2uI5wYRUR1NZ1ziW5up8lu5MZz80Mq9QgobNJs7FH4YaXQAeCjLn9Y0nIYusf9lHBDp2gezgeDQ9N8KJJR4zp16JSjecTpEiM9hu7NmJSrpbnEL_5oGhYZkwTusaeInSfMpwtTu-KjCP5H3CK9lDDz1ItmZVKgk1McV8V8Vacf3SDc4x3KQoWTyD9-hlOCPzqntAljp-GMzmIJytQ9sGeXYbpY76p0X2AigQUA5CP1s4WEFU4Z15rk75t0yZHRiiTkuWQPxmGyQ0O_oWJZe8L7TeZP9zkT5XKs5GfWLJU5V2ecMjoI_mJSzOxpBNmirdOVmC1hDTSPkB8C0n1TRScFla1]--></g></svg>