<?xml version="1.0" encoding="us-ascii" standalone="no"?><svg xmlns="http://www.w3.org/2000/svg" xmlns:xlink="http://www.w3.org/1999/xlink" contentStyleType="text/css" height="197px" preserveAspectRatio="none" style="width:240px;height:197px;background:#FFFFFF;" version="1.1" viewBox="0 0 240 197" width="240px" zoomAndPan="magnify"><defs/><g><line style="stroke:#AAAAAA;stroke-width:1.0;" x1="6" x2="233" y1="8.5" y2="8.5"/><line style="stroke:#AAAAAA;stroke-width:1.0;" x1="6" x2="233" y1="10.5" y2="10.5"/><text fill="#000000" font-family="sans-serif" font-size="12" lengthAdjust="spacing" textLength="226" x="6" y="26.8281">SigHor - Sistema Generador de Horarios</text><line style="stroke:#AAAAAA;stroke-width:1.0;" x1="6" x2="233" y1="34.8441" y2="34.8441"/><line style="stroke:#AAAAAA;stroke-width:1.0;" x1="6" x2="233" y1="36.8441" y2="36.8441"/><text fill="#000000" font-family="sans-serif" font-size="12" lengthAdjust="spacing" textLength="222" x="7" y="70.5163">Do you want to close the active session?</text><text fill="#000000" font-family="sans-serif" font-size="12" lengthAdjust="spacing" textLength="74" x="7" y="88.8604">Current user:</text><text fill="#000000" font-family="sans-serif" font-size="12" font-weight="bold" lengthAdjust="spacing" textLength="84" x="84" y="88.8604">Administrator</text><rect fill="#EEEEEE" height="20.3441" rx="5" ry="5" style="stroke:#000000;stroke-width:2.5;" width="52" x="10.5" y="116.2206"/><text fill="#000000" font-family="sans-serif" font-size="12" lengthAdjust="spacing" textLength="38" x="17.5" y="131.0487">Cancel</text><rect fill="#EEEEEE" height="20.3441" rx="5" ry="5" style="stroke:#000000;stroke-width:2.5;" width="108" x="69.5" y="116.2206"/><text fill="#000000" font-family="sans-serif" font-size="12" lengthAdjust="spacing" textLength="76" x="85.5" y="131.0487">Close session</text><line style="stroke:#000000;stroke-width:1.0;" x1="6" x2="230" y1="48.5162" y2="48.5162"/><line style="stroke:#000000;stroke-width:1.0;" x1="6" x2="230" y1="141.0647" y2="141.0647"/><line style="stroke:#000000;stroke-width:1.0;" x1="6" x2="6" y1="48.5162" y2="75.0323"/><line style="stroke:#000000;stroke-width:1.0;" x1="230" x2="230" y1="75.0323" y2="93.3765"/><line style="stroke:#000000;stroke-width:1.0;" x1="230" x2="230" y1="48.5162" y2="75.0323"/><line style="stroke:#000000;stroke-width:1.0;" x1="6" x2="6" y1="111.7206" y2="141.0647"/><line style="stroke:#000000;stroke-width:1.0;" x1="6" x2="6" y1="93.3765" y2="111.7206"/><line style="stroke:#000000;stroke-width:1.0;" x1="230" x2="230" y1="111.7206" y2="141.0647"/><line style="stroke:#000000;stroke-width:1.0;" x1="6" x2="6" y1="75.0323" y2="93.3765"/><line style="stroke:#000000;stroke-width:1.0;" x1="230" x2="230" y1="93.3765" y2="111.7206"/><rect fill="#FFFFFF" height="16.3441" style="stroke:#FFFFFF;stroke-width:1.0;" width="82" x="12" y="40.3441"/><text fill="#000000" font-family="sans-serif" font-size="12" lengthAdjust="spacing" textLength="76" x="15" y="53.1722">Close session</text><line style="stroke:#AAAAAA;stroke-width:1.0;" x1="6" x2="233" y1="161.9088" y2="161.9088"/><line style="stroke:#AAAAAA;stroke-width:1.0;" x1="6" x2="233" y1="163.9088" y2="163.9088"/><text fill="#000000" font-family="sans-serif" font-size="12" lengthAdjust="spacing" textLength="81" x="6" y="180.2369">System: Active</text><line style="stroke:#AAAAAA;stroke-width:1.0;" x1="6" x2="233" y1="188.2529" y2="188.2529"/><line style="stroke:#AAAAAA;stroke-width:1.0;" x1="6" x2="233" y1="190.2529" y2="190.2529"/><!--SRC=[PL5TQy9047o_Nx7qIGDAJBMKGAasHejLAetwKYoSoHeFahjo7n6n_lTU8arQEW_7iBippEuDbQPIAvffY3EXC4AbcE2T8vEubpH7SYPWyM1HaOYbpq92nnAbCQSmHOwI9hQM8DWMbKoelvhpnmq4fJkegptSLFKIOm4dOU18kGOjhY507n1eh5bHAnvhGKq28oLQbL4eVN2SKP8pRaD9geLqdF-2RitEDIln7b0UOxQ5Bqj_nzpMOnVIlCqfJkK5V1XLIPlUXGoH9-LD2LbcTh7rOWu5ochpNjTplNxtjhKw69ZW3de3y5o_x_hk089m1MMxJLhJvRpmG0aZOuIaN8ljZBOERJAZ1OKtmpNBqOVNJ-IpySjF0K9UC2buRaz3Pfj5Ct3Nxpmn3H5AcmKs2pB6FJNsuqCUYuJnr8VrQjAv9tFAKqDJwusA1CBwofCFOVGD]--></g></svg>